<mxfile host="Electron" modified="2023-12-03T12:23:34.824Z" agent="Mozilla/5.0 (Windows NT 10.0; Win64; x64) AppleWebKit/537.36 (KHTML, like Gecko) draw.io/21.8.2 Chrome/114.0.5735.289 Electron/25.8.1 Safari/537.36" etag="dzzARkZLqi7POWHA1uHh" version="21.8.2" type="device">
  <diagram id="R2lEEEUBdFMjLlhIrx00" name="Page-1">
    <mxGraphModel dx="2643" dy="2168" grid="1" gridSize="10" guides="1" tooltips="1" connect="1" arrows="1" fold="1" page="1" pageScale="1" pageWidth="850" pageHeight="1100" math="0" shadow="0" extFonts="Permanent Marker^https://fonts.googleapis.com/css?family=Permanent+Marker">
      <root>
        <mxCell id="0" />
        <mxCell id="1" parent="0" />
        <mxCell id="W1w_GPU8LvK_WI4qFMCy-1" value="" style="rounded=0;whiteSpace=wrap;html=1;fillColor=#D2D2D2;movable=1;resizable=1;rotatable=1;deletable=1;editable=1;locked=0;connectable=1;strokeColor=#FF4C2B;strokeWidth=2;" parent="1" vertex="1">
          <mxGeometry x="-460" y="-470" width="1160" height="1420" as="geometry" />
        </mxCell>
        <mxCell id="C-vyLk0tnHw3VtMMgP7b-1" value="" style="edgeStyle=orthogonalEdgeStyle;endArrow=ERzeroToMany;startArrow=ERone;endFill=1;startFill=0;exitX=1;exitY=0.5;exitDx=0;exitDy=0;entryX=0;entryY=0.5;entryDx=0;entryDy=0;strokeWidth=2;strokeColor=#67AB9F;" parent="1" source="p7Mw4wTtwR3t4Kbprkma-233" target="p7Mw4wTtwR3t4Kbprkma-276" edge="1">
          <mxGeometry width="100" height="100" relative="1" as="geometry">
            <mxPoint x="-58" y="180" as="sourcePoint" />
            <mxPoint y="403" as="targetPoint" />
            <Array as="points">
              <mxPoint x="-70" />
              <mxPoint x="-70" y="90" />
            </Array>
          </mxGeometry>
        </mxCell>
        <mxCell id="C-vyLk0tnHw3VtMMgP7b-13" value="Authorization_data" style="shape=table;startSize=30;container=1;collapsible=1;childLayout=tableLayout;fixedRows=1;rowLines=0;fontStyle=1;align=center;resizeLast=1;strokeWidth=2;strokeColor=#0A1F32;fillColor=#344756;fontColor=#D2D2D2;fontSize=14;" parent="1" vertex="1">
          <mxGeometry x="-399" y="140" width="299" height="150" as="geometry" />
        </mxCell>
        <mxCell id="C-vyLk0tnHw3VtMMgP7b-14" value="" style="shape=partialRectangle;collapsible=0;dropTarget=0;pointerEvents=0;fillColor=none;points=[[0,0.5],[1,0.5]];portConstraint=eastwest;top=0;left=0;right=0;bottom=1;fontColor=#0A1F32;" parent="C-vyLk0tnHw3VtMMgP7b-13" vertex="1">
          <mxGeometry y="30" width="299" height="30" as="geometry" />
        </mxCell>
        <mxCell id="C-vyLk0tnHw3VtMMgP7b-15" value="PK" style="shape=partialRectangle;overflow=hidden;connectable=0;fillColor=none;top=0;left=0;bottom=0;right=0;fontStyle=1;fontColor=#0A1F32;" parent="C-vyLk0tnHw3VtMMgP7b-14" vertex="1">
          <mxGeometry width="30" height="30" as="geometry">
            <mxRectangle width="30" height="30" as="alternateBounds" />
          </mxGeometry>
        </mxCell>
        <mxCell id="C-vyLk0tnHw3VtMMgP7b-16" value="authorization_data_idÂ int NOT NULL " style="shape=partialRectangle;overflow=hidden;connectable=0;fillColor=none;top=0;left=0;bottom=0;right=0;align=left;spacingLeft=6;fontStyle=1;strokeColor=#0A1F32;strokeWidth=2;fontColor=#0A1F32;" parent="C-vyLk0tnHw3VtMMgP7b-14" vertex="1">
          <mxGeometry x="30" width="269" height="30" as="geometry">
            <mxRectangle width="269" height="30" as="alternateBounds" />
          </mxGeometry>
        </mxCell>
        <mxCell id="C-vyLk0tnHw3VtMMgP7b-17" value="" style="shape=partialRectangle;collapsible=0;dropTarget=0;pointerEvents=0;fillColor=none;points=[[0,0.5],[1,0.5]];portConstraint=eastwest;top=0;left=0;right=0;bottom=0;strokeWidth=2;strokeColor=#0A1F32;fontColor=#0A1F32;" parent="C-vyLk0tnHw3VtMMgP7b-13" vertex="1">
          <mxGeometry y="60" width="299" height="30" as="geometry" />
        </mxCell>
        <mxCell id="C-vyLk0tnHw3VtMMgP7b-18" value="FK1" style="shape=partialRectangle;overflow=hidden;connectable=0;fillColor=none;top=0;left=0;bottom=0;right=0;fontColor=#0A1F32;" parent="C-vyLk0tnHw3VtMMgP7b-17" vertex="1">
          <mxGeometry width="30" height="30" as="geometry">
            <mxRectangle width="30" height="30" as="alternateBounds" />
          </mxGeometry>
        </mxCell>
        <mxCell id="C-vyLk0tnHw3VtMMgP7b-19" value="user_id int NOT NULL" style="shape=partialRectangle;overflow=hidden;connectable=0;fillColor=none;top=0;left=0;bottom=0;right=0;align=left;spacingLeft=6;fontColor=#0A1F32;" parent="C-vyLk0tnHw3VtMMgP7b-17" vertex="1">
          <mxGeometry x="30" width="269" height="30" as="geometry">
            <mxRectangle width="269" height="30" as="alternateBounds" />
          </mxGeometry>
        </mxCell>
        <mxCell id="C-vyLk0tnHw3VtMMgP7b-20" value="" style="shape=partialRectangle;collapsible=0;dropTarget=0;pointerEvents=0;fillColor=none;points=[[0,0.5],[1,0.5]];portConstraint=eastwest;top=0;left=0;right=0;bottom=0;fontColor=#0A1F32;" parent="C-vyLk0tnHw3VtMMgP7b-13" vertex="1">
          <mxGeometry y="90" width="299" height="30" as="geometry" />
        </mxCell>
        <mxCell id="C-vyLk0tnHw3VtMMgP7b-21" value="" style="shape=partialRectangle;overflow=hidden;connectable=0;fillColor=none;top=0;left=0;bottom=0;right=0;fontColor=#0A1F32;" parent="C-vyLk0tnHw3VtMMgP7b-20" vertex="1">
          <mxGeometry width="30" height="30" as="geometry">
            <mxRectangle width="30" height="30" as="alternateBounds" />
          </mxGeometry>
        </mxCell>
        <mxCell id="C-vyLk0tnHw3VtMMgP7b-22" value="user_email char(50) NOT NULL" style="shape=partialRectangle;overflow=hidden;connectable=0;fillColor=none;top=0;left=0;bottom=0;right=0;align=left;spacingLeft=6;fontColor=#0A1F32;" parent="C-vyLk0tnHw3VtMMgP7b-20" vertex="1">
          <mxGeometry x="30" width="269" height="30" as="geometry">
            <mxRectangle width="269" height="30" as="alternateBounds" />
          </mxGeometry>
        </mxCell>
        <mxCell id="p7Mw4wTtwR3t4Kbprkma-261" value="" style="endArrow=none;html=1;rounded=0;strokeWidth=2;strokeColor=#0A1F32;exitX=0;exitY=0.997;exitDx=0;exitDy=0;exitPerimeter=0;entryX=0.999;entryY=1.023;entryDx=0;entryDy=0;entryPerimeter=0;fontColor=#0A1F32;" edge="1" parent="C-vyLk0tnHw3VtMMgP7b-13" source="C-vyLk0tnHw3VtMMgP7b-14" target="C-vyLk0tnHw3VtMMgP7b-14">
          <mxGeometry width="50" height="50" relative="1" as="geometry">
            <mxPoint x="149" y="60" as="sourcePoint" />
            <mxPoint x="199" y="10" as="targetPoint" />
          </mxGeometry>
        </mxCell>
        <mxCell id="p7Mw4wTtwR3t4Kbprkma-265" value="" style="shape=tableRow;horizontal=0;startSize=0;swimlaneHead=0;swimlaneBody=0;fillColor=none;collapsible=0;dropTarget=0;points=[[0,0.5],[1,0.5]];portConstraint=eastwest;top=0;left=0;right=0;bottom=0;" vertex="1" parent="C-vyLk0tnHw3VtMMgP7b-13">
          <mxGeometry y="120" width="299" height="30" as="geometry" />
        </mxCell>
        <mxCell id="p7Mw4wTtwR3t4Kbprkma-266" value="" style="shape=partialRectangle;connectable=0;fillColor=none;top=0;left=0;bottom=0;right=0;editable=1;overflow=hidden;" vertex="1" parent="p7Mw4wTtwR3t4Kbprkma-265">
          <mxGeometry width="30" height="30" as="geometry">
            <mxRectangle width="30" height="30" as="alternateBounds" />
          </mxGeometry>
        </mxCell>
        <mxCell id="p7Mw4wTtwR3t4Kbprkma-267" value="encoded_user_password char(100) NOT NULL" style="shape=partialRectangle;connectable=0;fillColor=none;top=0;left=0;bottom=0;right=0;align=left;spacingLeft=6;overflow=hidden;fontColor=#0A1F32;" vertex="1" parent="p7Mw4wTtwR3t4Kbprkma-265">
          <mxGeometry x="30" width="269" height="30" as="geometry">
            <mxRectangle width="269" height="30" as="alternateBounds" />
          </mxGeometry>
        </mxCell>
        <mxCell id="C-vyLk0tnHw3VtMMgP7b-23" value="User" style="shape=table;startSize=30;container=1;collapsible=1;childLayout=tableLayout;fixedRows=1;rowLines=0;fontStyle=1;align=center;resizeLast=1;strokeWidth=2;strokeColor=#0A1F32;fillColor=#344756;fontColor=#D2D2D2;fontSize=14;" parent="1" vertex="1">
          <mxGeometry x="-390" y="-350" width="280" height="460" as="geometry" />
        </mxCell>
        <mxCell id="C-vyLk0tnHw3VtMMgP7b-24" value="" style="shape=partialRectangle;collapsible=0;dropTarget=0;pointerEvents=0;fillColor=none;points=[[0,0.5],[1,0.5]];portConstraint=eastwest;top=0;left=0;right=0;bottom=1;strokeWidth=2;strokeColor=#0A1F32;fontColor=#0A1F32;" parent="C-vyLk0tnHw3VtMMgP7b-23" vertex="1">
          <mxGeometry y="30" width="280" height="30" as="geometry" />
        </mxCell>
        <mxCell id="C-vyLk0tnHw3VtMMgP7b-25" value="PK" style="shape=partialRectangle;overflow=hidden;connectable=0;fillColor=none;top=0;left=0;bottom=0;right=0;fontStyle=1;strokeWidth=2;strokeColor=#0A1F32;fontColor=#0A1F32;" parent="C-vyLk0tnHw3VtMMgP7b-24" vertex="1">
          <mxGeometry width="30" height="30" as="geometry">
            <mxRectangle width="30" height="30" as="alternateBounds" />
          </mxGeometry>
        </mxCell>
        <mxCell id="C-vyLk0tnHw3VtMMgP7b-26" value="user_id int NOT NULL AUTO INCREMENT" style="shape=partialRectangle;overflow=hidden;connectable=0;fillColor=none;top=0;left=0;bottom=0;right=0;align=left;spacingLeft=6;fontStyle=1;strokeWidth=2;strokeColor=#0A1F32;fontColor=#0A1F32;" parent="C-vyLk0tnHw3VtMMgP7b-24" vertex="1">
          <mxGeometry x="30" width="250" height="30" as="geometry">
            <mxRectangle width="250" height="30" as="alternateBounds" />
          </mxGeometry>
        </mxCell>
        <mxCell id="C-vyLk0tnHw3VtMMgP7b-27" value="" style="shape=partialRectangle;collapsible=0;dropTarget=0;pointerEvents=0;fillColor=none;points=[[0,0.5],[1,0.5]];portConstraint=eastwest;top=0;left=0;right=0;bottom=0;strokeWidth=2;strokeColor=#0A1F32;fontColor=#0A1F32;" parent="C-vyLk0tnHw3VtMMgP7b-23" vertex="1">
          <mxGeometry y="60" width="280" height="30" as="geometry" />
        </mxCell>
        <mxCell id="C-vyLk0tnHw3VtMMgP7b-28" value="" style="shape=partialRectangle;overflow=hidden;connectable=0;fillColor=none;top=0;left=0;bottom=0;right=0;strokeWidth=2;strokeColor=#0A1F32;fontColor=#0A1F32;" parent="C-vyLk0tnHw3VtMMgP7b-27" vertex="1">
          <mxGeometry width="30" height="30" as="geometry">
            <mxRectangle width="30" height="30" as="alternateBounds" />
          </mxGeometry>
        </mxCell>
        <mxCell id="C-vyLk0tnHw3VtMMgP7b-29" value="first_name char(50) NOT NULL" style="shape=partialRectangle;overflow=hidden;connectable=0;fillColor=none;top=0;left=0;bottom=0;right=0;align=left;spacingLeft=6;strokeWidth=2;strokeColor=#0A1F32;fontColor=#0A1F32;" parent="C-vyLk0tnHw3VtMMgP7b-27" vertex="1">
          <mxGeometry x="30" width="250" height="30" as="geometry">
            <mxRectangle width="250" height="30" as="alternateBounds" />
          </mxGeometry>
        </mxCell>
        <mxCell id="W1w_GPU8LvK_WI4qFMCy-18" value="" style="line;strokeWidth=2;rotatable=0;dashed=0;labelPosition=right;align=left;verticalAlign=middle;spacingTop=0;spacingLeft=6;points=[];portConstraint=eastwest;strokeColor=#0A1F32;fontColor=#0A1F32;" parent="1" vertex="1">
          <mxGeometry x="-390" y="-260" width="280" height="10" as="geometry" />
        </mxCell>
        <mxCell id="W1w_GPU8LvK_WI4qFMCy-23" value="" style="line;strokeWidth=2;rotatable=0;dashed=0;labelPosition=right;align=left;verticalAlign=middle;spacingTop=0;spacingLeft=6;points=[];portConstraint=eastwest;direction=south;strokeColor=#0A1F32;fontColor=#0A1F32;" parent="1" vertex="1">
          <mxGeometry x="-365" y="-320" width="10" height="430" as="geometry" />
        </mxCell>
        <mxCell id="W1w_GPU8LvK_WI4qFMCy-28" value="" style="shape=table;startSize=0;container=1;collapsible=1;childLayout=tableLayout;fixedRows=1;rowLines=0;fontStyle=0;align=center;resizeLast=1;strokeColor=#0A1F32;fillColor=none;collapsible=0;whiteSpace=wrap;html=1;strokeWidth=2;fontColor=#0A1F32;" parent="1" vertex="1">
          <mxGeometry x="-390" y="-225" width="280" height="30" as="geometry" />
        </mxCell>
        <mxCell id="W1w_GPU8LvK_WI4qFMCy-29" value="" style="shape=tableRow;horizontal=0;startSize=0;swimlaneHead=0;swimlaneBody=0;fillColor=none;collapsible=0;dropTarget=0;points=[[0,0.5],[1,0.5]];portConstraint=eastwest;top=0;left=0;right=0;bottom=0;strokeWidth=2;strokeColor=#0A1F32;fontColor=#0A1F32;" parent="W1w_GPU8LvK_WI4qFMCy-28" vertex="1">
          <mxGeometry width="280" height="30" as="geometry" />
        </mxCell>
        <mxCell id="W1w_GPU8LvK_WI4qFMCy-30" value="" style="shape=partialRectangle;connectable=0;fillColor=none;top=0;left=0;bottom=0;right=0;editable=1;overflow=hidden;strokeWidth=2;strokeColor=#0A1F32;fontColor=#0A1F32;" parent="W1w_GPU8LvK_WI4qFMCy-29" vertex="1">
          <mxGeometry width="30" height="30" as="geometry">
            <mxRectangle width="30" height="30" as="alternateBounds" />
          </mxGeometry>
        </mxCell>
        <mxCell id="W1w_GPU8LvK_WI4qFMCy-31" value="birthday dateÂ " style="shape=partialRectangle;connectable=0;fillColor=none;top=0;left=0;bottom=0;right=0;align=left;spacingLeft=6;overflow=hidden;strokeWidth=2;strokeColor=#0A1F32;fontColor=#0A1F32;" parent="W1w_GPU8LvK_WI4qFMCy-29" vertex="1">
          <mxGeometry x="30" width="250" height="30" as="geometry">
            <mxRectangle width="250" height="30" as="alternateBounds" />
          </mxGeometry>
        </mxCell>
        <mxCell id="W1w_GPU8LvK_WI4qFMCy-32" value="" style="shape=table;startSize=0;container=1;collapsible=1;childLayout=tableLayout;fixedRows=1;rowLines=0;fontStyle=0;align=center;resizeLast=1;strokeColor=#0A1F32;fillColor=none;collapsible=0;whiteSpace=wrap;html=1;strokeWidth=2;fontColor=#0A1F32;" parent="1" vertex="1">
          <mxGeometry x="-389.75" y="-45" width="279.5" height="30" as="geometry" />
        </mxCell>
        <mxCell id="W1w_GPU8LvK_WI4qFMCy-33" value="" style="shape=tableRow;horizontal=0;startSize=0;swimlaneHead=0;swimlaneBody=0;fillColor=none;collapsible=0;dropTarget=0;points=[[0,0.5],[1,0.5]];portConstraint=eastwest;top=0;left=0;right=0;bottom=0;strokeWidth=2;strokeColor=#0A1F32;fontColor=#0A1F32;" parent="W1w_GPU8LvK_WI4qFMCy-32" vertex="1">
          <mxGeometry width="279.5" height="30" as="geometry" />
        </mxCell>
        <mxCell id="W1w_GPU8LvK_WI4qFMCy-34" value="FK1" style="shape=partialRectangle;connectable=0;fillColor=none;top=0;left=0;bottom=0;right=0;editable=1;overflow=hidden;strokeWidth=2;strokeColor=#0A1F32;fontColor=#0A1F32;" parent="W1w_GPU8LvK_WI4qFMCy-33" vertex="1">
          <mxGeometry width="30" height="30" as="geometry">
            <mxRectangle width="30" height="30" as="alternateBounds" />
          </mxGeometry>
        </mxCell>
        <mxCell id="W1w_GPU8LvK_WI4qFMCy-35" value="authorization_data_idÂ  int NOT NULL" style="shape=partialRectangle;connectable=0;fillColor=none;top=0;left=0;bottom=0;right=0;align=left;spacingLeft=6;overflow=hidden;strokeWidth=2;strokeColor=#0A1F32;fontColor=#0A1F32;" parent="W1w_GPU8LvK_WI4qFMCy-33" vertex="1">
          <mxGeometry x="30" width="249.5" height="30" as="geometry">
            <mxRectangle width="249.5" height="30" as="alternateBounds" />
          </mxGeometry>
        </mxCell>
        <mxCell id="W1w_GPU8LvK_WI4qFMCy-36" value="" style="shape=table;startSize=0;container=1;collapsible=1;childLayout=tableLayout;fixedRows=1;rowLines=0;fontStyle=0;align=center;resizeLast=1;strokeColor=#0A1F32;fillColor=none;collapsible=0;whiteSpace=wrap;html=1;strokeWidth=2;fontColor=#0A1F32;" parent="1" vertex="1">
          <mxGeometry x="-389.5" y="-195" width="279.5" height="30" as="geometry" />
        </mxCell>
        <mxCell id="W1w_GPU8LvK_WI4qFMCy-37" value="" style="shape=tableRow;horizontal=0;startSize=0;swimlaneHead=0;swimlaneBody=0;fillColor=none;collapsible=0;dropTarget=0;points=[[0,0.5],[1,0.5]];portConstraint=eastwest;top=0;left=0;right=0;bottom=0;strokeWidth=2;strokeColor=#0A1F32;fontColor=#0A1F32;" parent="W1w_GPU8LvK_WI4qFMCy-36" vertex="1">
          <mxGeometry width="279.5" height="30" as="geometry" />
        </mxCell>
        <mxCell id="W1w_GPU8LvK_WI4qFMCy-38" value="" style="shape=partialRectangle;connectable=0;fillColor=none;top=0;left=0;bottom=0;right=0;editable=1;overflow=hidden;strokeWidth=2;strokeColor=#0A1F32;fontColor=#0A1F32;" parent="W1w_GPU8LvK_WI4qFMCy-37" vertex="1">
          <mxGeometry width="30" height="30" as="geometry">
            <mxRectangle width="30" height="30" as="alternateBounds" />
          </mxGeometry>
        </mxCell>
        <mxCell id="W1w_GPU8LvK_WI4qFMCy-39" value="user_age intÂ " style="shape=partialRectangle;connectable=0;fillColor=none;top=0;left=0;bottom=0;right=0;align=left;spacingLeft=6;overflow=hidden;strokeWidth=2;strokeColor=#0A1F32;fontColor=#0A1F32;" parent="W1w_GPU8LvK_WI4qFMCy-37" vertex="1">
          <mxGeometry x="30" width="249.5" height="30" as="geometry">
            <mxRectangle width="249.5" height="30" as="alternateBounds" />
          </mxGeometry>
        </mxCell>
        <mxCell id="W1w_GPU8LvK_WI4qFMCy-83" value="" style="edgeStyle=orthogonalEdgeStyle;fontSize=12;html=1;endArrow=ERmandOne;startArrow=ERmandOne;rounded=0;entryX=0;entryY=0.5;entryDx=0;entryDy=0;strokeWidth=2;exitX=0;exitY=0.5;exitDx=0;exitDy=0;strokeColor=#FF4C2B;" parent="1" source="W1w_GPU8LvK_WI4qFMCy-33" target="C-vyLk0tnHw3VtMMgP7b-14" edge="1">
          <mxGeometry width="100" height="100" relative="1" as="geometry">
            <mxPoint x="-410" y="200" as="sourcePoint" />
            <mxPoint x="-220" y="193" as="targetPoint" />
            <Array as="points">
              <mxPoint x="-420" y="-30" />
              <mxPoint x="-420" y="185" />
            </Array>
          </mxGeometry>
        </mxCell>
        <mxCell id="W1w_GPU8LvK_WI4qFMCy-87" value="" style="shape=tableRow;horizontal=0;startSize=0;swimlaneHead=0;swimlaneBody=0;fillColor=none;collapsible=0;dropTarget=0;points=[[0,0.5],[1,0.5]];portConstraint=eastwest;top=0;left=0;right=0;bottom=0;strokeWidth=2;strokeColor=#0A1F32;fontColor=#0A1F32;" parent="1" vertex="1">
          <mxGeometry x="-391" y="-134" width="270" height="30" as="geometry" />
        </mxCell>
        <mxCell id="W1w_GPU8LvK_WI4qFMCy-90" value="" style="shape=tableRow;horizontal=0;startSize=0;swimlaneHead=0;swimlaneBody=0;fillColor=none;collapsible=0;dropTarget=0;points=[[0,0.5],[1,0.5]];portConstraint=eastwest;top=0;left=0;right=0;bottom=0;strokeWidth=2;strokeColor=#0A1F32;fontColor=#0A1F32;" parent="1" vertex="1">
          <mxGeometry x="-389" y="-99" width="270" height="30" as="geometry" />
        </mxCell>
        <mxCell id="W1w_GPU8LvK_WI4qFMCy-133" value="" style="shape=table;startSize=0;container=1;collapsible=1;childLayout=tableLayout;fixedRows=1;rowLines=0;fontStyle=0;align=center;resizeLast=1;strokeColor=#0A1F32;fillColor=none;collapsible=0;whiteSpace=wrap;html=1;strokeWidth=2;fontColor=#0A1F32;" parent="1" vertex="1">
          <mxGeometry x="-389.5" y="75" width="279.5" height="35" as="geometry" />
        </mxCell>
        <mxCell id="W1w_GPU8LvK_WI4qFMCy-134" value="" style="shape=tableRow;horizontal=0;startSize=0;swimlaneHead=0;swimlaneBody=0;fillColor=none;collapsible=0;dropTarget=0;points=[[0,0.5],[1,0.5]];portConstraint=eastwest;top=0;left=0;right=0;bottom=0;strokeWidth=2;strokeColor=#0A1F32;fontColor=#0A1F32;" parent="W1w_GPU8LvK_WI4qFMCy-133" vertex="1">
          <mxGeometry width="279.5" height="35" as="geometry" />
        </mxCell>
        <mxCell id="W1w_GPU8LvK_WI4qFMCy-135" value="FK5" style="shape=partialRectangle;connectable=0;fillColor=none;top=0;left=0;bottom=0;right=0;editable=1;overflow=hidden;strokeWidth=2;strokeColor=#0A1F32;fontColor=#0A1F32;" parent="W1w_GPU8LvK_WI4qFMCy-134" vertex="1">
          <mxGeometry width="30" height="35" as="geometry">
            <mxRectangle width="30" height="35" as="alternateBounds" />
          </mxGeometry>
        </mxCell>
        <mxCell id="W1w_GPU8LvK_WI4qFMCy-136" value="user_templates_idÂ int NOT NULL" style="shape=partialRectangle;connectable=0;fillColor=none;top=0;left=0;bottom=0;right=0;align=left;spacingLeft=6;overflow=hidden;strokeWidth=2;strokeColor=#0A1F32;fontColor=#0A1F32;" parent="W1w_GPU8LvK_WI4qFMCy-134" vertex="1">
          <mxGeometry x="30" width="249.5" height="35" as="geometry">
            <mxRectangle width="249.5" height="35" as="alternateBounds" />
          </mxGeometry>
        </mxCell>
        <mxCell id="W1w_GPU8LvK_WI4qFMCy-148" value="" style="edgeStyle=orthogonalEdgeStyle;fontSize=12;html=1;endArrow=ERmandOne;startArrow=ERmandOne;rounded=0;entryX=0;entryY=0.5;entryDx=0;entryDy=0;strokeColor=#FF4C2B;strokeWidth=2;" parent="1" edge="1" target="p7Mw4wTtwR3t4Kbprkma-303">
          <mxGeometry width="100" height="100" relative="1" as="geometry">
            <mxPoint x="260" y="-130" as="sourcePoint" />
            <mxPoint x="1210.5" y="176" as="targetPoint" />
            <Array as="points">
              <mxPoint x="290" y="-130" />
              <mxPoint x="290" y="-305" />
            </Array>
          </mxGeometry>
        </mxCell>
        <mxCell id="W1w_GPU8LvK_WI4qFMCy-243" value="" style="edgeStyle=orthogonalEdgeStyle;endArrow=ERzeroToMany;startArrow=ERone;endFill=1;startFill=0;entryX=0;entryY=0.5;entryDx=0;entryDy=0;strokeWidth=2;strokeColor=#9999FF;exitX=1;exitY=0.5;exitDx=0;exitDy=0;" parent="1" source="p7Mw4wTtwR3t4Kbprkma-236" target="p7Mw4wTtwR3t4Kbprkma-347" edge="1">
          <mxGeometry width="100" height="100" relative="1" as="geometry">
            <mxPoint y="560" as="sourcePoint" />
            <mxPoint x="-386.5" y="650" as="targetPoint" />
            <Array as="points">
              <mxPoint x="-90" y="30" />
              <mxPoint x="-90" y="330" />
              <mxPoint x="310" y="330" />
              <mxPoint x="310" y="204" />
            </Array>
          </mxGeometry>
        </mxCell>
        <mxCell id="W1w_GPU8LvK_WI4qFMCy-244" value="" style="endArrow=ERzeroToMany;startArrow=ERone;endFill=1;startFill=0;exitX=1;exitY=0.5;exitDx=0;exitDy=0;strokeWidth=2;entryX=1;entryY=0.5;entryDx=0;entryDy=0;strokeColor=#9999FF;edgeStyle=orthogonalEdgeStyle;" parent="1" source="p7Mw4wTtwR3t4Kbprkma-222" target="p7Mw4wTtwR3t4Kbprkma-347" edge="1">
          <mxGeometry width="100" height="100" relative="1" as="geometry">
            <mxPoint x="-60" y="378" as="sourcePoint" />
            <mxPoint x="-90" y="643" as="targetPoint" />
            <Array as="points">
              <mxPoint x="300" y="-60" />
              <mxPoint x="300" y="130" />
              <mxPoint x="680" y="130" />
              <mxPoint x="680" y="204" />
            </Array>
          </mxGeometry>
        </mxCell>
        <mxCell id="p7Mw4wTtwR3t4Kbprkma-184" value="Community" style="shape=table;startSize=30;container=1;collapsible=1;childLayout=tableLayout;fixedRows=1;rowLines=0;fontStyle=1;align=center;resizeLast=1;strokeWidth=2;strokeColor=#0A1F32;fillColor=#344756;fontColor=#D2D2D2;fontSize=14;" vertex="1" parent="1">
          <mxGeometry x="-59" y="-350" width="319" height="350" as="geometry" />
        </mxCell>
        <mxCell id="p7Mw4wTtwR3t4Kbprkma-185" value="" style="shape=partialRectangle;collapsible=0;dropTarget=0;pointerEvents=0;fillColor=none;points=[[0,0.5],[1,0.5]];portConstraint=eastwest;top=0;left=0;right=0;bottom=1;strokeWidth=2;strokeColor=#0A1F32;fontColor=#0A1F32;" vertex="1" parent="p7Mw4wTtwR3t4Kbprkma-184">
          <mxGeometry y="30" width="319" height="30" as="geometry" />
        </mxCell>
        <mxCell id="p7Mw4wTtwR3t4Kbprkma-186" value="PK" style="shape=partialRectangle;overflow=hidden;connectable=0;fillColor=none;top=0;left=0;bottom=0;right=0;fontStyle=1;strokeWidth=2;strokeColor=#0A1F32;fontColor=#0A1F32;" vertex="1" parent="p7Mw4wTtwR3t4Kbprkma-185">
          <mxGeometry width="30" height="30" as="geometry">
            <mxRectangle width="30" height="30" as="alternateBounds" />
          </mxGeometry>
        </mxCell>
        <mxCell id="p7Mw4wTtwR3t4Kbprkma-187" value="community_id int NOT NULL AUTO INCREMENT" style="shape=partialRectangle;overflow=hidden;connectable=0;fillColor=none;top=0;left=0;bottom=0;right=0;align=left;spacingLeft=6;fontStyle=1;strokeWidth=2;strokeColor=#0A1F32;fontColor=#0A1F32;" vertex="1" parent="p7Mw4wTtwR3t4Kbprkma-185">
          <mxGeometry x="30" width="289" height="30" as="geometry">
            <mxRectangle width="289" height="30" as="alternateBounds" />
          </mxGeometry>
        </mxCell>
        <mxCell id="p7Mw4wTtwR3t4Kbprkma-188" value="" style="shape=partialRectangle;collapsible=0;dropTarget=0;pointerEvents=0;fillColor=none;points=[[0,0.5],[1,0.5]];portConstraint=eastwest;top=0;left=0;right=0;bottom=0;strokeWidth=2;strokeColor=#0A1F32;fontColor=#0A1F32;" vertex="1" parent="p7Mw4wTtwR3t4Kbprkma-184">
          <mxGeometry y="60" width="319" height="30" as="geometry" />
        </mxCell>
        <mxCell id="p7Mw4wTtwR3t4Kbprkma-189" value="" style="shape=partialRectangle;overflow=hidden;connectable=0;fillColor=none;top=0;left=0;bottom=0;right=0;strokeWidth=2;strokeColor=#0A1F32;fontColor=#0A1F32;" vertex="1" parent="p7Mw4wTtwR3t4Kbprkma-188">
          <mxGeometry width="30" height="30" as="geometry">
            <mxRectangle width="30" height="30" as="alternateBounds" />
          </mxGeometry>
        </mxCell>
        <mxCell id="p7Mw4wTtwR3t4Kbprkma-190" value="community_name char(240) NOT NULL" style="shape=partialRectangle;overflow=hidden;connectable=0;fillColor=none;top=0;left=0;bottom=0;right=0;align=left;spacingLeft=6;strokeWidth=2;strokeColor=#0A1F32;fontColor=#0A1F32;" vertex="1" parent="p7Mw4wTtwR3t4Kbprkma-188">
          <mxGeometry x="30" width="289" height="30" as="geometry">
            <mxRectangle width="289" height="30" as="alternateBounds" />
          </mxGeometry>
        </mxCell>
        <mxCell id="p7Mw4wTtwR3t4Kbprkma-196" value="" style="line;strokeWidth=2;rotatable=0;dashed=0;labelPosition=right;align=left;verticalAlign=middle;spacingTop=0;spacingLeft=6;points=[];portConstraint=eastwest;direction=south;strokeColor=#0A1F32;fontColor=#0A1F32;" vertex="1" parent="1">
          <mxGeometry x="-34" y="-320" width="10" height="280" as="geometry" />
        </mxCell>
        <mxCell id="p7Mw4wTtwR3t4Kbprkma-197" value="" style="shape=table;startSize=0;container=1;collapsible=1;childLayout=tableLayout;fixedRows=1;rowLines=0;fontStyle=0;align=center;resizeLast=1;strokeColor=#0A1F32;fillColor=none;collapsible=0;whiteSpace=wrap;html=1;strokeWidth=2;fontColor=#0A1F32;" vertex="1" parent="1">
          <mxGeometry x="-59" y="-260" width="319" height="30" as="geometry" />
        </mxCell>
        <mxCell id="p7Mw4wTtwR3t4Kbprkma-198" value="" style="shape=tableRow;horizontal=0;startSize=0;swimlaneHead=0;swimlaneBody=0;fillColor=none;collapsible=0;dropTarget=0;points=[[0,0.5],[1,0.5]];portConstraint=eastwest;top=0;left=0;right=0;bottom=0;strokeWidth=2;strokeColor=#0A1F32;fontColor=#0A1F32;" vertex="1" parent="p7Mw4wTtwR3t4Kbprkma-197">
          <mxGeometry width="319" height="30" as="geometry" />
        </mxCell>
        <mxCell id="p7Mw4wTtwR3t4Kbprkma-199" value="" style="shape=partialRectangle;connectable=0;fillColor=none;top=0;left=0;bottom=0;right=0;editable=1;overflow=hidden;strokeWidth=2;strokeColor=#0A1F32;fontColor=#0A1F32;" vertex="1" parent="p7Mw4wTtwR3t4Kbprkma-198">
          <mxGeometry width="30" height="30" as="geometry">
            <mxRectangle width="30" height="30" as="alternateBounds" />
          </mxGeometry>
        </mxCell>
        <mxCell id="p7Mw4wTtwR3t4Kbprkma-200" value="community_description VARCHAR NOT NULL" style="shape=partialRectangle;connectable=0;fillColor=none;top=0;left=0;bottom=0;right=0;align=left;spacingLeft=6;overflow=hidden;strokeWidth=2;strokeColor=#0A1F32;fontColor=#0A1F32;" vertex="1" parent="p7Mw4wTtwR3t4Kbprkma-198">
          <mxGeometry x="30" width="289" height="30" as="geometry">
            <mxRectangle width="289" height="30" as="alternateBounds" />
          </mxGeometry>
        </mxCell>
        <mxCell id="p7Mw4wTtwR3t4Kbprkma-201" value="" style="shape=table;startSize=0;container=1;collapsible=1;childLayout=tableLayout;fixedRows=1;rowLines=0;fontStyle=0;align=center;resizeLast=1;strokeColor=#0A1F32;fillColor=none;collapsible=0;whiteSpace=wrap;html=1;strokeWidth=2;fontColor=#0A1F32;" vertex="1" parent="1">
          <mxGeometry x="-59" y="-230" width="319" height="30" as="geometry" />
        </mxCell>
        <mxCell id="p7Mw4wTtwR3t4Kbprkma-202" value="" style="shape=tableRow;horizontal=0;startSize=0;swimlaneHead=0;swimlaneBody=0;fillColor=none;collapsible=0;dropTarget=0;points=[[0,0.5],[1,0.5]];portConstraint=eastwest;top=0;left=0;right=0;bottom=0;strokeWidth=2;strokeColor=#0A1F32;fontColor=#0A1F32;" vertex="1" parent="p7Mw4wTtwR3t4Kbprkma-201">
          <mxGeometry width="319" height="30" as="geometry" />
        </mxCell>
        <mxCell id="p7Mw4wTtwR3t4Kbprkma-203" value="" style="shape=partialRectangle;connectable=0;fillColor=none;top=0;left=0;bottom=0;right=0;editable=1;overflow=hidden;strokeWidth=2;strokeColor=#0A1F32;fontColor=#0A1F32;" vertex="1" parent="p7Mw4wTtwR3t4Kbprkma-202">
          <mxGeometry width="30" height="30" as="geometry">
            <mxRectangle width="30" height="30" as="alternateBounds" />
          </mxGeometry>
        </mxCell>
        <mxCell id="p7Mw4wTtwR3t4Kbprkma-204" value="country char(50)Â " style="shape=partialRectangle;connectable=0;fillColor=none;top=0;left=0;bottom=0;right=0;align=left;spacingLeft=6;overflow=hidden;strokeWidth=2;strokeColor=#0A1F32;fontColor=#0A1F32;" vertex="1" parent="p7Mw4wTtwR3t4Kbprkma-202">
          <mxGeometry x="30" width="289" height="30" as="geometry">
            <mxRectangle width="289" height="30" as="alternateBounds" />
          </mxGeometry>
        </mxCell>
        <mxCell id="p7Mw4wTtwR3t4Kbprkma-205" value="" style="shape=table;startSize=0;container=1;collapsible=1;childLayout=tableLayout;fixedRows=1;rowLines=0;fontStyle=0;align=center;resizeLast=1;strokeColor=#0A1F32;fillColor=none;collapsible=0;whiteSpace=wrap;html=1;strokeWidth=2;fontColor=#0A1F32;" vertex="1" parent="1">
          <mxGeometry x="-59" y="-200" width="319" height="30" as="geometry" />
        </mxCell>
        <mxCell id="p7Mw4wTtwR3t4Kbprkma-206" value="" style="shape=tableRow;horizontal=0;startSize=0;swimlaneHead=0;swimlaneBody=0;fillColor=none;collapsible=0;dropTarget=0;points=[[0,0.5],[1,0.5]];portConstraint=eastwest;top=0;left=0;right=0;bottom=0;strokeWidth=2;strokeColor=#0A1F32;fontColor=#0A1F32;" vertex="1" parent="p7Mw4wTtwR3t4Kbprkma-205">
          <mxGeometry width="319" height="30" as="geometry" />
        </mxCell>
        <mxCell id="p7Mw4wTtwR3t4Kbprkma-207" value="" style="shape=partialRectangle;connectable=0;fillColor=none;top=0;left=0;bottom=0;right=0;editable=1;overflow=hidden;strokeWidth=2;strokeColor=#0A1F32;fontColor=#0A1F32;" vertex="1" parent="p7Mw4wTtwR3t4Kbprkma-206">
          <mxGeometry width="30" height="30" as="geometry">
            <mxRectangle width="30" height="30" as="alternateBounds" />
          </mxGeometry>
        </mxCell>
        <mxCell id="p7Mw4wTtwR3t4Kbprkma-208" value="city char(50)Â " style="shape=partialRectangle;connectable=0;fillColor=none;top=0;left=0;bottom=0;right=0;align=left;spacingLeft=6;overflow=hidden;strokeWidth=2;strokeColor=#0A1F32;fontColor=#0A1F32;" vertex="1" parent="p7Mw4wTtwR3t4Kbprkma-206">
          <mxGeometry x="30" width="289" height="30" as="geometry">
            <mxRectangle width="289" height="30" as="alternateBounds" />
          </mxGeometry>
        </mxCell>
        <mxCell id="p7Mw4wTtwR3t4Kbprkma-209" value="" style="shape=table;startSize=0;container=1;collapsible=1;childLayout=tableLayout;fixedRows=1;rowLines=0;fontStyle=0;align=center;resizeLast=1;strokeColor=#0A1F32;fillColor=none;collapsible=0;whiteSpace=wrap;html=1;strokeWidth=2;fontColor=#0A1F32;" vertex="1" parent="1">
          <mxGeometry x="-59" y="-170" width="319" height="30" as="geometry" />
        </mxCell>
        <mxCell id="p7Mw4wTtwR3t4Kbprkma-210" value="" style="shape=tableRow;horizontal=0;startSize=0;swimlaneHead=0;swimlaneBody=0;fillColor=none;collapsible=0;dropTarget=0;points=[[0,0.5],[1,0.5]];portConstraint=eastwest;top=0;left=0;right=0;bottom=0;strokeWidth=2;strokeColor=#0A1F32;fontColor=#0A1F32;" vertex="1" parent="p7Mw4wTtwR3t4Kbprkma-209">
          <mxGeometry width="319" height="30" as="geometry" />
        </mxCell>
        <mxCell id="p7Mw4wTtwR3t4Kbprkma-211" value="" style="shape=partialRectangle;connectable=0;fillColor=none;top=0;left=0;bottom=0;right=0;editable=1;overflow=hidden;strokeWidth=2;strokeColor=#0A1F32;fontColor=#0A1F32;" vertex="1" parent="p7Mw4wTtwR3t4Kbprkma-210">
          <mxGeometry width="30" height="30" as="geometry">
            <mxRectangle width="30" height="30" as="alternateBounds" />
          </mxGeometry>
        </mxCell>
        <mxCell id="p7Mw4wTtwR3t4Kbprkma-212" value="district char(50)Â " style="shape=partialRectangle;connectable=0;fillColor=none;top=0;left=0;bottom=0;right=0;align=left;spacingLeft=6;overflow=hidden;strokeWidth=2;strokeColor=#0A1F32;fontColor=#0A1F32;" vertex="1" parent="p7Mw4wTtwR3t4Kbprkma-210">
          <mxGeometry x="30" width="289" height="30" as="geometry">
            <mxRectangle width="289" height="30" as="alternateBounds" />
          </mxGeometry>
        </mxCell>
        <mxCell id="p7Mw4wTtwR3t4Kbprkma-213" value="" style="shape=tableRow;horizontal=0;startSize=0;swimlaneHead=0;swimlaneBody=0;fillColor=none;collapsible=0;dropTarget=0;points=[[0,0.5],[1,0.5]];portConstraint=eastwest;top=0;left=0;right=0;bottom=0;strokeWidth=2;strokeColor=#0A1F32;fontColor=#0A1F32;" vertex="1" parent="1">
          <mxGeometry x="-60" y="-134" width="310" height="30" as="geometry" />
        </mxCell>
        <mxCell id="p7Mw4wTtwR3t4Kbprkma-214" value="FK1" style="shape=partialRectangle;connectable=0;fillColor=none;top=0;left=0;bottom=0;right=0;editable=1;overflow=hidden;strokeWidth=2;strokeColor=#0A1F32;fontColor=#0A1F32;" vertex="1" parent="p7Mw4wTtwR3t4Kbprkma-213">
          <mxGeometry y="-6" width="30" height="30" as="geometry">
            <mxRectangle width="30" height="30" as="alternateBounds" />
          </mxGeometry>
        </mxCell>
        <mxCell id="p7Mw4wTtwR3t4Kbprkma-215" value="community_authorization_data_idÂ  int NOT NULL" style="shape=partialRectangle;connectable=0;fillColor=none;top=0;left=0;bottom=0;right=0;align=left;spacingLeft=6;overflow=hidden;strokeWidth=2;strokeColor=#0A1F32;fontColor=#0A1F32;" vertex="1" parent="p7Mw4wTtwR3t4Kbprkma-213">
          <mxGeometry x="30" y="-6" width="280" height="30" as="geometry">
            <mxRectangle width="240" height="30" as="alternateBounds" />
          </mxGeometry>
        </mxCell>
        <mxCell id="p7Mw4wTtwR3t4Kbprkma-216" value="" style="shape=tableRow;horizontal=0;startSize=0;swimlaneHead=0;swimlaneBody=0;fillColor=none;collapsible=0;dropTarget=0;points=[[0,0.5],[1,0.5]];portConstraint=eastwest;top=0;left=0;right=0;bottom=0;strokeWidth=2;strokeColor=#0A1F32;fontColor=#0A1F32;" vertex="1" parent="1">
          <mxGeometry x="-58" y="-100" width="320" height="30" as="geometry" />
        </mxCell>
        <mxCell id="p7Mw4wTtwR3t4Kbprkma-217" value="FK2" style="shape=partialRectangle;connectable=0;fillColor=none;top=0;left=0;bottom=0;right=0;editable=1;overflow=hidden;strokeWidth=2;strokeColor=#0A1F32;fontColor=#0A1F32;" vertex="1" parent="p7Mw4wTtwR3t4Kbprkma-216">
          <mxGeometry y="-10" width="30" height="30" as="geometry">
            <mxRectangle width="30" height="30" as="alternateBounds" />
          </mxGeometry>
        </mxCell>
        <mxCell id="p7Mw4wTtwR3t4Kbprkma-218" value="monitoring_option_idÂ int NOT NULL" style="shape=partialRectangle;connectable=0;fillColor=none;top=0;left=0;bottom=0;right=0;align=left;spacingLeft=6;overflow=hidden;strokeWidth=2;strokeColor=#0A1F32;fontColor=#0A1F32;" vertex="1" parent="p7Mw4wTtwR3t4Kbprkma-216">
          <mxGeometry x="28" y="-11" width="292" height="30" as="geometry">
            <mxRectangle width="240" height="30" as="alternateBounds" />
          </mxGeometry>
        </mxCell>
        <mxCell id="p7Mw4wTtwR3t4Kbprkma-219" value="" style="line;strokeWidth=2;rotatable=0;dashed=0;labelPosition=right;align=left;verticalAlign=middle;spacingTop=0;spacingLeft=6;points=[];portConstraint=eastwest;strokeColor=#0A1F32;fontColor=#0A1F32;" vertex="1" parent="1">
          <mxGeometry x="-59" y="-114" width="319" height="10" as="geometry" />
        </mxCell>
        <mxCell id="p7Mw4wTtwR3t4Kbprkma-221" value="" style="shape=table;startSize=0;container=1;collapsible=1;childLayout=tableLayout;fixedRows=1;rowLines=0;fontStyle=0;align=center;resizeLast=1;strokeColor=#0A1F32;fillColor=none;collapsible=0;whiteSpace=wrap;html=1;strokeWidth=2;fontColor=#0A1F32;" vertex="1" parent="1">
          <mxGeometry x="-59" y="-80" width="318.5" height="40" as="geometry" />
        </mxCell>
        <mxCell id="p7Mw4wTtwR3t4Kbprkma-222" value="" style="shape=tableRow;horizontal=0;startSize=0;swimlaneHead=0;swimlaneBody=0;fillColor=none;collapsible=0;dropTarget=0;points=[[0,0.5],[1,0.5]];portConstraint=eastwest;top=0;left=0;right=0;bottom=0;strokeWidth=2;strokeColor=#0A1F32;fontColor=#0A1F32;" vertex="1" parent="p7Mw4wTtwR3t4Kbprkma-221">
          <mxGeometry width="318.5" height="39" as="geometry" />
        </mxCell>
        <mxCell id="p7Mw4wTtwR3t4Kbprkma-223" value="FK3" style="shape=partialRectangle;connectable=0;fillColor=none;top=0;left=0;bottom=0;right=0;editable=1;overflow=hidden;strokeWidth=2;strokeColor=#0A1F32;fontColor=#0A1F32;" vertex="1" parent="p7Mw4wTtwR3t4Kbprkma-222">
          <mxGeometry width="30" height="39" as="geometry">
            <mxRectangle width="30" height="39" as="alternateBounds" />
          </mxGeometry>
        </mxCell>
        <mxCell id="p7Mw4wTtwR3t4Kbprkma-224" value="subscribers_subscririons_id int NOT NULL" style="shape=partialRectangle;connectable=0;fillColor=none;top=0;left=0;bottom=0;right=0;align=left;spacingLeft=6;overflow=hidden;strokeWidth=2;strokeColor=#0A1F32;fontColor=#0A1F32;" vertex="1" parent="p7Mw4wTtwR3t4Kbprkma-222">
          <mxGeometry x="30" width="288.5" height="39" as="geometry">
            <mxRectangle width="288.5" height="39" as="alternateBounds" />
          </mxGeometry>
        </mxCell>
        <mxCell id="p7Mw4wTtwR3t4Kbprkma-227" value="" style="shape=table;startSize=0;container=1;collapsible=1;childLayout=tableLayout;fixedRows=1;rowLines=0;fontStyle=0;align=center;resizeLast=1;strokeColor=#0A1F32;fillColor=none;collapsible=0;whiteSpace=wrap;html=1;strokeWidth=2;fontColor=#0A1F32;" vertex="1" parent="1">
          <mxGeometry x="-390" y="-255" width="280" height="30" as="geometry" />
        </mxCell>
        <mxCell id="p7Mw4wTtwR3t4Kbprkma-228" value="" style="shape=tableRow;horizontal=0;startSize=0;swimlaneHead=0;swimlaneBody=0;fillColor=none;collapsible=0;dropTarget=0;points=[[0,0.5],[1,0.5]];portConstraint=eastwest;top=0;left=0;right=0;bottom=0;strokeWidth=2;strokeColor=#0A1F32;fontColor=#0A1F32;" vertex="1" parent="p7Mw4wTtwR3t4Kbprkma-227">
          <mxGeometry width="280" height="30" as="geometry" />
        </mxCell>
        <mxCell id="p7Mw4wTtwR3t4Kbprkma-229" value="" style="shape=partialRectangle;connectable=0;fillColor=none;top=0;left=0;bottom=0;right=0;editable=1;overflow=hidden;strokeWidth=2;strokeColor=#0A1F32;fontColor=#0A1F32;" vertex="1" parent="p7Mw4wTtwR3t4Kbprkma-228">
          <mxGeometry width="30" height="30" as="geometry">
            <mxRectangle width="30" height="30" as="alternateBounds" />
          </mxGeometry>
        </mxCell>
        <mxCell id="p7Mw4wTtwR3t4Kbprkma-230" value="last_name char(50) NOT NULL" style="shape=partialRectangle;connectable=0;fillColor=none;top=0;left=0;bottom=0;right=0;align=left;spacingLeft=6;overflow=hidden;strokeWidth=2;strokeColor=#0A1F32;fontColor=#0A1F32;" vertex="1" parent="p7Mw4wTtwR3t4Kbprkma-228">
          <mxGeometry x="30" width="250" height="30" as="geometry">
            <mxRectangle width="250" height="30" as="alternateBounds" />
          </mxGeometry>
        </mxCell>
        <mxCell id="p7Mw4wTtwR3t4Kbprkma-232" value="" style="shape=table;startSize=0;container=1;collapsible=1;childLayout=tableLayout;fixedRows=1;rowLines=0;fontStyle=0;align=center;resizeLast=1;strokeColor=#0A1F32;fillColor=none;collapsible=0;whiteSpace=wrap;html=1;strokeWidth=2;fontColor=#0A1F32;" vertex="1" parent="1">
          <mxGeometry x="-389.75" y="-15" width="279.5" height="30" as="geometry" />
        </mxCell>
        <mxCell id="p7Mw4wTtwR3t4Kbprkma-233" value="" style="shape=tableRow;horizontal=0;startSize=0;swimlaneHead=0;swimlaneBody=0;fillColor=none;collapsible=0;dropTarget=0;points=[[0,0.5],[1,0.5]];portConstraint=eastwest;top=0;left=0;right=0;bottom=0;strokeWidth=2;strokeColor=#0A1F32;fontColor=#0A1F32;" vertex="1" parent="p7Mw4wTtwR3t4Kbprkma-232">
          <mxGeometry width="279.5" height="30" as="geometry" />
        </mxCell>
        <mxCell id="p7Mw4wTtwR3t4Kbprkma-234" value="FK2" style="shape=partialRectangle;connectable=0;fillColor=none;top=0;left=0;bottom=0;right=0;editable=1;overflow=hidden;strokeWidth=2;strokeColor=#0A1F32;fontColor=#0A1F32;" vertex="1" parent="p7Mw4wTtwR3t4Kbprkma-233">
          <mxGeometry width="30" height="30" as="geometry">
            <mxRectangle width="30" height="30" as="alternateBounds" />
          </mxGeometry>
        </mxCell>
        <mxCell id="p7Mw4wTtwR3t4Kbprkma-235" value="notificarion_option_idÂ  int NOT NULL" style="shape=partialRectangle;connectable=0;fillColor=none;top=0;left=0;bottom=0;right=0;align=left;spacingLeft=6;overflow=hidden;strokeWidth=2;strokeColor=#0A1F32;fontColor=#0A1F32;" vertex="1" parent="p7Mw4wTtwR3t4Kbprkma-233">
          <mxGeometry x="30" width="249.5" height="30" as="geometry">
            <mxRectangle width="249.5" height="30" as="alternateBounds" />
          </mxGeometry>
        </mxCell>
        <mxCell id="p7Mw4wTtwR3t4Kbprkma-236" value="" style="shape=table;startSize=0;container=1;collapsible=1;childLayout=tableLayout;fixedRows=1;rowLines=0;fontStyle=0;align=center;resizeLast=1;strokeColor=#0A1F32;fillColor=none;collapsible=0;whiteSpace=wrap;html=1;strokeWidth=2;fontColor=#0A1F32;" vertex="1" parent="1">
          <mxGeometry x="-389.75" y="15" width="279.5" height="30" as="geometry" />
        </mxCell>
        <mxCell id="p7Mw4wTtwR3t4Kbprkma-237" value="" style="shape=tableRow;horizontal=0;startSize=0;swimlaneHead=0;swimlaneBody=0;fillColor=none;collapsible=0;dropTarget=0;points=[[0,0.5],[1,0.5]];portConstraint=eastwest;top=0;left=0;right=0;bottom=0;strokeWidth=2;strokeColor=#0A1F32;fontColor=#0A1F32;" vertex="1" parent="p7Mw4wTtwR3t4Kbprkma-236">
          <mxGeometry width="279.5" height="30" as="geometry" />
        </mxCell>
        <mxCell id="p7Mw4wTtwR3t4Kbprkma-238" value="FK3" style="shape=partialRectangle;connectable=0;fillColor=none;top=0;left=0;bottom=0;right=0;editable=1;overflow=hidden;strokeWidth=2;strokeColor=#0A1F32;fontColor=#0A1F32;" vertex="1" parent="p7Mw4wTtwR3t4Kbprkma-237">
          <mxGeometry width="30" height="30" as="geometry">
            <mxRectangle width="30" height="30" as="alternateBounds" />
          </mxGeometry>
        </mxCell>
        <mxCell id="p7Mw4wTtwR3t4Kbprkma-239" value="subscribers_subscririons_idÂ Â int NOT NULL" style="shape=partialRectangle;connectable=0;fillColor=none;top=0;left=0;bottom=0;right=0;align=left;spacingLeft=6;overflow=hidden;strokeWidth=2;strokeColor=#0A1F32;fontColor=#0A1F32;" vertex="1" parent="p7Mw4wTtwR3t4Kbprkma-237">
          <mxGeometry x="30" width="249.5" height="30" as="geometry">
            <mxRectangle width="249.5" height="30" as="alternateBounds" />
          </mxGeometry>
        </mxCell>
        <mxCell id="p7Mw4wTtwR3t4Kbprkma-241" value="" style="shape=table;startSize=0;container=1;collapsible=1;childLayout=tableLayout;fixedRows=1;rowLines=0;fontStyle=0;align=center;resizeLast=1;strokeColor=#0A1F32;fillColor=none;collapsible=0;whiteSpace=wrap;html=1;strokeWidth=2;fontColor=#0A1F32;" vertex="1" parent="1">
          <mxGeometry x="-389.75" y="45" width="279.5" height="30" as="geometry" />
        </mxCell>
        <mxCell id="p7Mw4wTtwR3t4Kbprkma-242" value="" style="shape=tableRow;horizontal=0;startSize=0;swimlaneHead=0;swimlaneBody=0;fillColor=none;collapsible=0;dropTarget=0;points=[[0,0.5],[1,0.5]];portConstraint=eastwest;top=0;left=0;right=0;bottom=0;strokeWidth=2;strokeColor=#0A1F32;fontColor=#0A1F32;" vertex="1" parent="p7Mw4wTtwR3t4Kbprkma-241">
          <mxGeometry width="279.5" height="30" as="geometry" />
        </mxCell>
        <mxCell id="p7Mw4wTtwR3t4Kbprkma-243" value="FK4" style="shape=partialRectangle;connectable=0;fillColor=none;top=0;left=0;bottom=0;right=0;editable=1;overflow=hidden;strokeWidth=2;strokeColor=#0A1F32;fontColor=#0A1F32;" vertex="1" parent="p7Mw4wTtwR3t4Kbprkma-242">
          <mxGeometry width="30" height="30" as="geometry">
            <mxRectangle width="30" height="30" as="alternateBounds" />
          </mxGeometry>
        </mxCell>
        <mxCell id="p7Mw4wTtwR3t4Kbprkma-244" value="group_data_idÂ  int NOT NULL" style="shape=partialRectangle;connectable=0;fillColor=none;top=0;left=0;bottom=0;right=0;align=left;spacingLeft=6;overflow=hidden;strokeWidth=2;strokeColor=#0A1F32;fontColor=#0A1F32;" vertex="1" parent="p7Mw4wTtwR3t4Kbprkma-242">
          <mxGeometry x="30" width="249.5" height="30" as="geometry">
            <mxRectangle width="249.5" height="30" as="alternateBounds" />
          </mxGeometry>
        </mxCell>
        <mxCell id="p7Mw4wTtwR3t4Kbprkma-245" value="" style="shape=table;startSize=0;container=1;collapsible=1;childLayout=tableLayout;fixedRows=1;rowLines=0;fontStyle=0;align=center;resizeLast=1;strokeColor=#0A1F32;fillColor=none;collapsible=0;whiteSpace=wrap;html=1;strokeWidth=2;fontColor=#0A1F32;" vertex="1" parent="1">
          <mxGeometry x="-389.75" y="-165" width="280" height="30" as="geometry" />
        </mxCell>
        <mxCell id="p7Mw4wTtwR3t4Kbprkma-246" value="" style="shape=tableRow;horizontal=0;startSize=0;swimlaneHead=0;swimlaneBody=0;fillColor=none;collapsible=0;dropTarget=0;points=[[0,0.5],[1,0.5]];portConstraint=eastwest;top=0;left=0;right=0;bottom=0;strokeWidth=2;strokeColor=#0A1F32;fontColor=#0A1F32;" vertex="1" parent="p7Mw4wTtwR3t4Kbprkma-245">
          <mxGeometry width="280" height="30" as="geometry" />
        </mxCell>
        <mxCell id="p7Mw4wTtwR3t4Kbprkma-247" value="" style="shape=partialRectangle;connectable=0;fillColor=none;top=0;left=0;bottom=0;right=0;editable=1;overflow=hidden;strokeWidth=2;strokeColor=#0A1F32;fontColor=#0A1F32;" vertex="1" parent="p7Mw4wTtwR3t4Kbprkma-246">
          <mxGeometry width="30" height="30" as="geometry">
            <mxRectangle width="30" height="30" as="alternateBounds" />
          </mxGeometry>
        </mxCell>
        <mxCell id="p7Mw4wTtwR3t4Kbprkma-248" value="registration_date date NOT NULL" style="shape=partialRectangle;connectable=0;fillColor=none;top=0;left=0;bottom=0;right=0;align=left;spacingLeft=6;overflow=hidden;strokeWidth=2;strokeColor=#0A1F32;fontColor=#0A1F32;" vertex="1" parent="p7Mw4wTtwR3t4Kbprkma-246">
          <mxGeometry x="30" width="250" height="30" as="geometry">
            <mxRectangle width="250" height="30" as="alternateBounds" />
          </mxGeometry>
        </mxCell>
        <mxCell id="p7Mw4wTtwR3t4Kbprkma-249" value="" style="shape=table;startSize=0;container=1;collapsible=1;childLayout=tableLayout;fixedRows=1;rowLines=0;fontStyle=0;align=center;resizeLast=1;strokeColor=#0A1F32;fillColor=none;collapsible=0;whiteSpace=wrap;html=1;strokeWidth=2;fontColor=#0A1F32;" vertex="1" parent="1">
          <mxGeometry x="-389.25" y="-135" width="279.5" height="30" as="geometry" />
        </mxCell>
        <mxCell id="p7Mw4wTtwR3t4Kbprkma-250" value="" style="shape=tableRow;horizontal=0;startSize=0;swimlaneHead=0;swimlaneBody=0;fillColor=none;collapsible=0;dropTarget=0;points=[[0,0.5],[1,0.5]];portConstraint=eastwest;top=0;left=0;right=0;bottom=0;strokeWidth=2;strokeColor=#0A1F32;fontColor=#0A1F32;" vertex="1" parent="p7Mw4wTtwR3t4Kbprkma-249">
          <mxGeometry width="279.5" height="30" as="geometry" />
        </mxCell>
        <mxCell id="p7Mw4wTtwR3t4Kbprkma-251" value="" style="shape=partialRectangle;connectable=0;fillColor=none;top=0;left=0;bottom=0;right=0;editable=1;overflow=hidden;strokeWidth=2;strokeColor=#0A1F32;fontColor=#0A1F32;" vertex="1" parent="p7Mw4wTtwR3t4Kbprkma-250">
          <mxGeometry width="30" height="30" as="geometry">
            <mxRectangle width="30" height="30" as="alternateBounds" />
          </mxGeometry>
        </mxCell>
        <mxCell id="p7Mw4wTtwR3t4Kbprkma-252" value="country char(50)Â " style="shape=partialRectangle;connectable=0;fillColor=none;top=0;left=0;bottom=0;right=0;align=left;spacingLeft=6;overflow=hidden;strokeWidth=2;strokeColor=#0A1F32;fontColor=#0A1F32;" vertex="1" parent="p7Mw4wTtwR3t4Kbprkma-250">
          <mxGeometry x="30" width="249.5" height="30" as="geometry">
            <mxRectangle width="249.5" height="30" as="alternateBounds" />
          </mxGeometry>
        </mxCell>
        <mxCell id="p7Mw4wTtwR3t4Kbprkma-253" value="" style="shape=table;startSize=0;container=1;collapsible=1;childLayout=tableLayout;fixedRows=1;rowLines=0;fontStyle=0;align=center;resizeLast=1;strokeColor=#0A1F32;fillColor=none;collapsible=0;whiteSpace=wrap;html=1;strokeWidth=2;fontColor=#0A1F32;" vertex="1" parent="1">
          <mxGeometry x="-390" y="-105" width="280" height="30" as="geometry" />
        </mxCell>
        <mxCell id="p7Mw4wTtwR3t4Kbprkma-254" value="" style="shape=tableRow;horizontal=0;startSize=0;swimlaneHead=0;swimlaneBody=0;fillColor=none;collapsible=0;dropTarget=0;points=[[0,0.5],[1,0.5]];portConstraint=eastwest;top=0;left=0;right=0;bottom=0;strokeWidth=2;strokeColor=#0A1F32;fontColor=#0A1F32;" vertex="1" parent="p7Mw4wTtwR3t4Kbprkma-253">
          <mxGeometry width="280" height="30" as="geometry" />
        </mxCell>
        <mxCell id="p7Mw4wTtwR3t4Kbprkma-255" value="" style="shape=partialRectangle;connectable=0;fillColor=none;top=0;left=0;bottom=0;right=0;editable=1;overflow=hidden;strokeWidth=2;strokeColor=#0A1F32;fontColor=#0A1F32;" vertex="1" parent="p7Mw4wTtwR3t4Kbprkma-254">
          <mxGeometry width="30" height="30" as="geometry">
            <mxRectangle width="30" height="30" as="alternateBounds" />
          </mxGeometry>
        </mxCell>
        <mxCell id="p7Mw4wTtwR3t4Kbprkma-256" value="city char(50)Â " style="shape=partialRectangle;connectable=0;fillColor=none;top=0;left=0;bottom=0;right=0;align=left;spacingLeft=6;overflow=hidden;strokeWidth=2;strokeColor=#0A1F32;fontColor=#0A1F32;" vertex="1" parent="p7Mw4wTtwR3t4Kbprkma-254">
          <mxGeometry x="30" width="250" height="30" as="geometry">
            <mxRectangle width="250" height="30" as="alternateBounds" />
          </mxGeometry>
        </mxCell>
        <mxCell id="p7Mw4wTtwR3t4Kbprkma-257" value="" style="shape=table;startSize=0;container=1;collapsible=1;childLayout=tableLayout;fixedRows=1;rowLines=0;fontStyle=0;align=center;resizeLast=1;strokeColor=#0A1F32;fillColor=none;collapsible=0;whiteSpace=wrap;html=1;strokeWidth=2;fontColor=#0A1F32;" vertex="1" parent="1">
          <mxGeometry x="-389.5" y="-75" width="279.5" height="30" as="geometry" />
        </mxCell>
        <mxCell id="p7Mw4wTtwR3t4Kbprkma-258" value="" style="shape=tableRow;horizontal=0;startSize=0;swimlaneHead=0;swimlaneBody=0;fillColor=none;collapsible=0;dropTarget=0;points=[[0,0.5],[1,0.5]];portConstraint=eastwest;top=0;left=0;right=0;bottom=0;strokeWidth=2;strokeColor=#0A1F32;fontColor=#0A1F32;" vertex="1" parent="p7Mw4wTtwR3t4Kbprkma-257">
          <mxGeometry width="279.5" height="30" as="geometry" />
        </mxCell>
        <mxCell id="p7Mw4wTtwR3t4Kbprkma-259" value="" style="shape=partialRectangle;connectable=0;fillColor=none;top=0;left=0;bottom=0;right=0;editable=1;overflow=hidden;strokeWidth=2;strokeColor=#0A1F32;fontColor=#0A1F32;" vertex="1" parent="p7Mw4wTtwR3t4Kbprkma-258">
          <mxGeometry width="30" height="30" as="geometry">
            <mxRectangle width="30" height="30" as="alternateBounds" />
          </mxGeometry>
        </mxCell>
        <mxCell id="p7Mw4wTtwR3t4Kbprkma-260" value="district char(50)Â " style="shape=partialRectangle;connectable=0;fillColor=none;top=0;left=0;bottom=0;right=0;align=left;spacingLeft=6;overflow=hidden;strokeWidth=2;strokeColor=#0A1F32;fontColor=#0A1F32;" vertex="1" parent="p7Mw4wTtwR3t4Kbprkma-258">
          <mxGeometry x="30" width="249.5" height="30" as="geometry">
            <mxRectangle width="249.5" height="30" as="alternateBounds" />
          </mxGeometry>
        </mxCell>
        <mxCell id="p7Mw4wTtwR3t4Kbprkma-275" value="Notification_options_Users" style="shape=table;startSize=30;container=1;collapsible=1;childLayout=tableLayout;fixedRows=1;rowLines=0;fontStyle=1;align=center;resizeLast=1;strokeWidth=2;strokeColor=#0A1F32;fillColor=#344756;fontColor=#D2D2D2;fontSize=14;" vertex="1" parent="1">
          <mxGeometry x="-49" y="45" width="299" height="120" as="geometry" />
        </mxCell>
        <mxCell id="p7Mw4wTtwR3t4Kbprkma-276" value="" style="shape=partialRectangle;collapsible=0;dropTarget=0;pointerEvents=0;fillColor=none;points=[[0,0.5],[1,0.5]];portConstraint=eastwest;top=0;left=0;right=0;bottom=1;fontColor=#0A1F32;" vertex="1" parent="p7Mw4wTtwR3t4Kbprkma-275">
          <mxGeometry y="30" width="299" height="30" as="geometry" />
        </mxCell>
        <mxCell id="p7Mw4wTtwR3t4Kbprkma-277" value="PK" style="shape=partialRectangle;overflow=hidden;connectable=0;fillColor=none;top=0;left=0;bottom=0;right=0;fontStyle=1;fontColor=#0A1F32;" vertex="1" parent="p7Mw4wTtwR3t4Kbprkma-276">
          <mxGeometry width="30" height="30" as="geometry">
            <mxRectangle width="30" height="30" as="alternateBounds" />
          </mxGeometry>
        </mxCell>
        <mxCell id="p7Mw4wTtwR3t4Kbprkma-278" value="notification_option_idÂ int NOT NULL " style="shape=partialRectangle;overflow=hidden;connectable=0;fillColor=none;top=0;left=0;bottom=0;right=0;align=left;spacingLeft=6;fontStyle=1;strokeColor=#0A1F32;strokeWidth=2;fontColor=#0A1F32;" vertex="1" parent="p7Mw4wTtwR3t4Kbprkma-276">
          <mxGeometry x="30" width="269" height="30" as="geometry">
            <mxRectangle width="269" height="30" as="alternateBounds" />
          </mxGeometry>
        </mxCell>
        <mxCell id="p7Mw4wTtwR3t4Kbprkma-279" value="" style="shape=partialRectangle;collapsible=0;dropTarget=0;pointerEvents=0;fillColor=none;points=[[0,0.5],[1,0.5]];portConstraint=eastwest;top=0;left=0;right=0;bottom=0;strokeWidth=2;strokeColor=#0A1F32;fontColor=#0A1F32;" vertex="1" parent="p7Mw4wTtwR3t4Kbprkma-275">
          <mxGeometry y="60" width="299" height="30" as="geometry" />
        </mxCell>
        <mxCell id="p7Mw4wTtwR3t4Kbprkma-280" value="FK1" style="shape=partialRectangle;overflow=hidden;connectable=0;fillColor=none;top=0;left=0;bottom=0;right=0;fontColor=#0A1F32;" vertex="1" parent="p7Mw4wTtwR3t4Kbprkma-279">
          <mxGeometry width="30" height="30" as="geometry">
            <mxRectangle width="30" height="30" as="alternateBounds" />
          </mxGeometry>
        </mxCell>
        <mxCell id="p7Mw4wTtwR3t4Kbprkma-281" value="user_id int NOT NULL" style="shape=partialRectangle;overflow=hidden;connectable=0;fillColor=none;top=0;left=0;bottom=0;right=0;align=left;spacingLeft=6;fontColor=#0A1F32;" vertex="1" parent="p7Mw4wTtwR3t4Kbprkma-279">
          <mxGeometry x="30" width="269" height="30" as="geometry">
            <mxRectangle width="269" height="30" as="alternateBounds" />
          </mxGeometry>
        </mxCell>
        <mxCell id="p7Mw4wTtwR3t4Kbprkma-282" value="" style="shape=partialRectangle;collapsible=0;dropTarget=0;pointerEvents=0;fillColor=none;points=[[0,0.5],[1,0.5]];portConstraint=eastwest;top=0;left=0;right=0;bottom=0;fontColor=#0A1F32;" vertex="1" parent="p7Mw4wTtwR3t4Kbprkma-275">
          <mxGeometry y="90" width="299" height="30" as="geometry" />
        </mxCell>
        <mxCell id="p7Mw4wTtwR3t4Kbprkma-283" value="FK2" style="shape=partialRectangle;overflow=hidden;connectable=0;fillColor=none;top=0;left=0;bottom=0;right=0;fontColor=#0A1F32;" vertex="1" parent="p7Mw4wTtwR3t4Kbprkma-282">
          <mxGeometry width="30" height="30" as="geometry">
            <mxRectangle width="30" height="30" as="alternateBounds" />
          </mxGeometry>
        </mxCell>
        <mxCell id="p7Mw4wTtwR3t4Kbprkma-284" value="option_id int NOT NULL" style="shape=partialRectangle;overflow=hidden;connectable=0;fillColor=none;top=0;left=0;bottom=0;right=0;align=left;spacingLeft=6;fontColor=#0A1F32;" vertex="1" parent="p7Mw4wTtwR3t4Kbprkma-282">
          <mxGeometry x="30" width="269" height="30" as="geometry">
            <mxRectangle width="269" height="30" as="alternateBounds" />
          </mxGeometry>
        </mxCell>
        <mxCell id="p7Mw4wTtwR3t4Kbprkma-285" value="" style="endArrow=none;html=1;rounded=0;strokeWidth=2;strokeColor=#0A1F32;exitX=0;exitY=0.997;exitDx=0;exitDy=0;exitPerimeter=0;entryX=0.999;entryY=1.023;entryDx=0;entryDy=0;entryPerimeter=0;fontColor=#0A1F32;" edge="1" parent="p7Mw4wTtwR3t4Kbprkma-275" source="p7Mw4wTtwR3t4Kbprkma-276" target="p7Mw4wTtwR3t4Kbprkma-276">
          <mxGeometry width="50" height="50" relative="1" as="geometry">
            <mxPoint x="149" y="60" as="sourcePoint" />
            <mxPoint x="199" y="10" as="targetPoint" />
          </mxGeometry>
        </mxCell>
        <mxCell id="p7Mw4wTtwR3t4Kbprkma-289" value="" style="edgeStyle=orthogonalEdgeStyle;endArrow=ERzeroToMany;startArrow=ERone;endFill=1;startFill=0;exitX=1;exitY=0.5;exitDx=0;exitDy=0;entryX=1;entryY=0.5;entryDx=0;entryDy=0;strokeWidth=2;strokeColor=#67AB9F;" edge="1" parent="1" source="p7Mw4wTtwR3t4Kbprkma-294" target="p7Mw4wTtwR3t4Kbprkma-276">
          <mxGeometry width="100" height="100" relative="1" as="geometry">
            <mxPoint x="396" y="60" as="sourcePoint" />
            <mxPoint x="454" y="283" as="targetPoint" />
            <Array as="points">
              <mxPoint x="280" y="270" />
              <mxPoint x="280" y="90" />
            </Array>
          </mxGeometry>
        </mxCell>
        <mxCell id="p7Mw4wTtwR3t4Kbprkma-290" value="Notification_options" style="shape=table;startSize=30;container=1;collapsible=1;childLayout=tableLayout;fixedRows=1;rowLines=0;fontStyle=1;align=center;resizeLast=1;strokeWidth=2;strokeColor=#0A1F32;fillColor=#344756;fontColor=#D2D2D2;fontSize=14;" vertex="1" parent="1">
          <mxGeometry x="-49.25" y="195" width="299" height="120" as="geometry" />
        </mxCell>
        <mxCell id="p7Mw4wTtwR3t4Kbprkma-291" value="" style="shape=partialRectangle;collapsible=0;dropTarget=0;pointerEvents=0;fillColor=none;points=[[0,0.5],[1,0.5]];portConstraint=eastwest;top=0;left=0;right=0;bottom=1;fontColor=#0A1F32;" vertex="1" parent="p7Mw4wTtwR3t4Kbprkma-290">
          <mxGeometry y="30" width="299" height="30" as="geometry" />
        </mxCell>
        <mxCell id="p7Mw4wTtwR3t4Kbprkma-292" value="PK" style="shape=partialRectangle;overflow=hidden;connectable=0;fillColor=none;top=0;left=0;bottom=0;right=0;fontStyle=1;fontColor=#0A1F32;" vertex="1" parent="p7Mw4wTtwR3t4Kbprkma-291">
          <mxGeometry width="30" height="30" as="geometry">
            <mxRectangle width="30" height="30" as="alternateBounds" />
          </mxGeometry>
        </mxCell>
        <mxCell id="p7Mw4wTtwR3t4Kbprkma-293" value="option_idÂ int NOT NULL " style="shape=partialRectangle;overflow=hidden;connectable=0;fillColor=none;top=0;left=0;bottom=0;right=0;align=left;spacingLeft=6;fontStyle=1;strokeColor=#0A1F32;strokeWidth=2;fontColor=#0A1F32;" vertex="1" parent="p7Mw4wTtwR3t4Kbprkma-291">
          <mxGeometry x="30" width="269" height="30" as="geometry">
            <mxRectangle width="269" height="30" as="alternateBounds" />
          </mxGeometry>
        </mxCell>
        <mxCell id="p7Mw4wTtwR3t4Kbprkma-294" value="" style="shape=partialRectangle;collapsible=0;dropTarget=0;pointerEvents=0;fillColor=none;points=[[0,0.5],[1,0.5]];portConstraint=eastwest;top=0;left=0;right=0;bottom=0;strokeWidth=2;strokeColor=#0A1F32;fontColor=#0A1F32;" vertex="1" parent="p7Mw4wTtwR3t4Kbprkma-290">
          <mxGeometry y="60" width="299" height="30" as="geometry" />
        </mxCell>
        <mxCell id="p7Mw4wTtwR3t4Kbprkma-295" value="FK1" style="shape=partialRectangle;overflow=hidden;connectable=0;fillColor=none;top=0;left=0;bottom=0;right=0;fontColor=#0A1F32;" vertex="1" parent="p7Mw4wTtwR3t4Kbprkma-294">
          <mxGeometry width="30" height="30" as="geometry">
            <mxRectangle width="30" height="30" as="alternateBounds" />
          </mxGeometry>
        </mxCell>
        <mxCell id="p7Mw4wTtwR3t4Kbprkma-296" value="notification_option_idÂ int NOT NULL" style="shape=partialRectangle;overflow=hidden;connectable=0;fillColor=none;top=0;left=0;bottom=0;right=0;align=left;spacingLeft=6;fontColor=#0A1F32;" vertex="1" parent="p7Mw4wTtwR3t4Kbprkma-294">
          <mxGeometry x="30" width="269" height="30" as="geometry">
            <mxRectangle width="269" height="30" as="alternateBounds" />
          </mxGeometry>
        </mxCell>
        <mxCell id="p7Mw4wTtwR3t4Kbprkma-297" value="" style="shape=partialRectangle;collapsible=0;dropTarget=0;pointerEvents=0;fillColor=none;points=[[0,0.5],[1,0.5]];portConstraint=eastwest;top=0;left=0;right=0;bottom=0;fontColor=#0A1F32;" vertex="1" parent="p7Mw4wTtwR3t4Kbprkma-290">
          <mxGeometry y="90" width="299" height="30" as="geometry" />
        </mxCell>
        <mxCell id="p7Mw4wTtwR3t4Kbprkma-298" value="" style="shape=partialRectangle;overflow=hidden;connectable=0;fillColor=none;top=0;left=0;bottom=0;right=0;fontColor=#0A1F32;" vertex="1" parent="p7Mw4wTtwR3t4Kbprkma-297">
          <mxGeometry width="30" height="30" as="geometry">
            <mxRectangle width="30" height="30" as="alternateBounds" />
          </mxGeometry>
        </mxCell>
        <mxCell id="p7Mw4wTtwR3t4Kbprkma-299" value="option_name char(50) NOT NULL" style="shape=partialRectangle;overflow=hidden;connectable=0;fillColor=none;top=0;left=0;bottom=0;right=0;align=left;spacingLeft=6;fontColor=#0A1F32;" vertex="1" parent="p7Mw4wTtwR3t4Kbprkma-297">
          <mxGeometry x="30" width="269" height="30" as="geometry">
            <mxRectangle width="269" height="30" as="alternateBounds" />
          </mxGeometry>
        </mxCell>
        <mxCell id="p7Mw4wTtwR3t4Kbprkma-300" value="" style="endArrow=none;html=1;rounded=0;strokeWidth=2;strokeColor=#0A1F32;exitX=0;exitY=0.997;exitDx=0;exitDy=0;exitPerimeter=0;entryX=0.999;entryY=1.023;entryDx=0;entryDy=0;entryPerimeter=0;fontColor=#0A1F32;" edge="1" parent="p7Mw4wTtwR3t4Kbprkma-290" source="p7Mw4wTtwR3t4Kbprkma-291" target="p7Mw4wTtwR3t4Kbprkma-291">
          <mxGeometry width="50" height="50" relative="1" as="geometry">
            <mxPoint x="149" y="60" as="sourcePoint" />
            <mxPoint x="199" y="10" as="targetPoint" />
          </mxGeometry>
        </mxCell>
        <mxCell id="p7Mw4wTtwR3t4Kbprkma-302" value="Community_authorization_data" style="shape=table;startSize=30;container=1;collapsible=1;childLayout=tableLayout;fixedRows=1;rowLines=0;fontStyle=1;align=center;resizeLast=1;strokeWidth=2;strokeColor=#0A1F32;fillColor=#344756;fontColor=#D2D2D2;fontSize=14;" vertex="1" parent="1">
          <mxGeometry x="310" y="-350" width="330" height="150" as="geometry" />
        </mxCell>
        <mxCell id="p7Mw4wTtwR3t4Kbprkma-303" value="" style="shape=partialRectangle;collapsible=0;dropTarget=0;pointerEvents=0;fillColor=none;points=[[0,0.5],[1,0.5]];portConstraint=eastwest;top=0;left=0;right=0;bottom=1;fontColor=#0A1F32;" vertex="1" parent="p7Mw4wTtwR3t4Kbprkma-302">
          <mxGeometry y="30" width="330" height="30" as="geometry" />
        </mxCell>
        <mxCell id="p7Mw4wTtwR3t4Kbprkma-304" value="PK" style="shape=partialRectangle;overflow=hidden;connectable=0;fillColor=none;top=0;left=0;bottom=0;right=0;fontStyle=1;fontColor=#0A1F32;" vertex="1" parent="p7Mw4wTtwR3t4Kbprkma-303">
          <mxGeometry width="30" height="30" as="geometry">
            <mxRectangle width="30" height="30" as="alternateBounds" />
          </mxGeometry>
        </mxCell>
        <mxCell id="p7Mw4wTtwR3t4Kbprkma-305" value="community_authorization_data_idÂ int NOT NULL " style="shape=partialRectangle;overflow=hidden;connectable=0;fillColor=none;top=0;left=0;bottom=0;right=0;align=left;spacingLeft=6;fontStyle=1;strokeColor=#0A1F32;strokeWidth=2;fontColor=#0A1F32;" vertex="1" parent="p7Mw4wTtwR3t4Kbprkma-303">
          <mxGeometry x="30" width="300" height="30" as="geometry">
            <mxRectangle width="300" height="30" as="alternateBounds" />
          </mxGeometry>
        </mxCell>
        <mxCell id="p7Mw4wTtwR3t4Kbprkma-306" value="" style="shape=partialRectangle;collapsible=0;dropTarget=0;pointerEvents=0;fillColor=none;points=[[0,0.5],[1,0.5]];portConstraint=eastwest;top=0;left=0;right=0;bottom=0;strokeWidth=2;strokeColor=#0A1F32;fontColor=#0A1F32;" vertex="1" parent="p7Mw4wTtwR3t4Kbprkma-302">
          <mxGeometry y="60" width="330" height="30" as="geometry" />
        </mxCell>
        <mxCell id="p7Mw4wTtwR3t4Kbprkma-307" value="FK1" style="shape=partialRectangle;overflow=hidden;connectable=0;fillColor=none;top=0;left=0;bottom=0;right=0;fontColor=#0A1F32;" vertex="1" parent="p7Mw4wTtwR3t4Kbprkma-306">
          <mxGeometry width="30" height="30" as="geometry">
            <mxRectangle width="30" height="30" as="alternateBounds" />
          </mxGeometry>
        </mxCell>
        <mxCell id="p7Mw4wTtwR3t4Kbprkma-308" value="community_id int NOT NULL" style="shape=partialRectangle;overflow=hidden;connectable=0;fillColor=none;top=0;left=0;bottom=0;right=0;align=left;spacingLeft=6;fontColor=#0A1F32;" vertex="1" parent="p7Mw4wTtwR3t4Kbprkma-306">
          <mxGeometry x="30" width="300" height="30" as="geometry">
            <mxRectangle width="300" height="30" as="alternateBounds" />
          </mxGeometry>
        </mxCell>
        <mxCell id="p7Mw4wTtwR3t4Kbprkma-309" value="" style="shape=partialRectangle;collapsible=0;dropTarget=0;pointerEvents=0;fillColor=none;points=[[0,0.5],[1,0.5]];portConstraint=eastwest;top=0;left=0;right=0;bottom=0;fontColor=#0A1F32;" vertex="1" parent="p7Mw4wTtwR3t4Kbprkma-302">
          <mxGeometry y="90" width="330" height="30" as="geometry" />
        </mxCell>
        <mxCell id="p7Mw4wTtwR3t4Kbprkma-310" value="" style="shape=partialRectangle;overflow=hidden;connectable=0;fillColor=none;top=0;left=0;bottom=0;right=0;fontColor=#0A1F32;" vertex="1" parent="p7Mw4wTtwR3t4Kbprkma-309">
          <mxGeometry width="30" height="30" as="geometry">
            <mxRectangle width="30" height="30" as="alternateBounds" />
          </mxGeometry>
        </mxCell>
        <mxCell id="p7Mw4wTtwR3t4Kbprkma-311" value="community_email char(50) NOT NULL" style="shape=partialRectangle;overflow=hidden;connectable=0;fillColor=none;top=0;left=0;bottom=0;right=0;align=left;spacingLeft=6;fontColor=#0A1F32;" vertex="1" parent="p7Mw4wTtwR3t4Kbprkma-309">
          <mxGeometry x="30" width="300" height="30" as="geometry">
            <mxRectangle width="300" height="30" as="alternateBounds" />
          </mxGeometry>
        </mxCell>
        <mxCell id="p7Mw4wTtwR3t4Kbprkma-312" value="" style="endArrow=none;html=1;rounded=0;strokeWidth=2;strokeColor=#0A1F32;exitX=0;exitY=0.997;exitDx=0;exitDy=0;exitPerimeter=0;entryX=0.999;entryY=1.023;entryDx=0;entryDy=0;entryPerimeter=0;fontColor=#0A1F32;" edge="1" parent="p7Mw4wTtwR3t4Kbprkma-302" source="p7Mw4wTtwR3t4Kbprkma-303" target="p7Mw4wTtwR3t4Kbprkma-303">
          <mxGeometry width="50" height="50" relative="1" as="geometry">
            <mxPoint x="149" y="60" as="sourcePoint" />
            <mxPoint x="199" y="10" as="targetPoint" />
          </mxGeometry>
        </mxCell>
        <mxCell id="p7Mw4wTtwR3t4Kbprkma-313" value="" style="shape=tableRow;horizontal=0;startSize=0;swimlaneHead=0;swimlaneBody=0;fillColor=none;collapsible=0;dropTarget=0;points=[[0,0.5],[1,0.5]];portConstraint=eastwest;top=0;left=0;right=0;bottom=0;" vertex="1" parent="p7Mw4wTtwR3t4Kbprkma-302">
          <mxGeometry y="120" width="330" height="30" as="geometry" />
        </mxCell>
        <mxCell id="p7Mw4wTtwR3t4Kbprkma-314" value="" style="shape=partialRectangle;connectable=0;fillColor=none;top=0;left=0;bottom=0;right=0;editable=1;overflow=hidden;" vertex="1" parent="p7Mw4wTtwR3t4Kbprkma-313">
          <mxGeometry width="30" height="30" as="geometry">
            <mxRectangle width="30" height="30" as="alternateBounds" />
          </mxGeometry>
        </mxCell>
        <mxCell id="p7Mw4wTtwR3t4Kbprkma-315" value="community_encoded_password char(100) NOT NULL" style="shape=partialRectangle;connectable=0;fillColor=none;top=0;left=0;bottom=0;right=0;align=left;spacingLeft=6;overflow=hidden;fontColor=#0A1F32;" vertex="1" parent="p7Mw4wTtwR3t4Kbprkma-313">
          <mxGeometry x="30" width="300" height="30" as="geometry">
            <mxRectangle width="300" height="30" as="alternateBounds" />
          </mxGeometry>
        </mxCell>
        <mxCell id="p7Mw4wTtwR3t4Kbprkma-316" value="Monitored_emergency_Community" style="shape=table;startSize=30;container=1;collapsible=1;childLayout=tableLayout;fixedRows=1;rowLines=0;fontStyle=1;align=center;resizeLast=1;strokeWidth=2;strokeColor=#0A1F32;fillColor=#344756;fontColor=#D2D2D2;fontSize=14;" vertex="1" parent="1">
          <mxGeometry x="326.25" y="-160" width="299" height="120" as="geometry" />
        </mxCell>
        <mxCell id="p7Mw4wTtwR3t4Kbprkma-317" value="" style="shape=partialRectangle;collapsible=0;dropTarget=0;pointerEvents=0;fillColor=none;points=[[0,0.5],[1,0.5]];portConstraint=eastwest;top=0;left=0;right=0;bottom=1;fontColor=#0A1F32;" vertex="1" parent="p7Mw4wTtwR3t4Kbprkma-316">
          <mxGeometry y="30" width="299" height="30" as="geometry" />
        </mxCell>
        <mxCell id="p7Mw4wTtwR3t4Kbprkma-318" value="PK" style="shape=partialRectangle;overflow=hidden;connectable=0;fillColor=none;top=0;left=0;bottom=0;right=0;fontStyle=1;fontColor=#0A1F32;" vertex="1" parent="p7Mw4wTtwR3t4Kbprkma-317">
          <mxGeometry width="30" height="30" as="geometry">
            <mxRectangle width="30" height="30" as="alternateBounds" />
          </mxGeometry>
        </mxCell>
        <mxCell id="p7Mw4wTtwR3t4Kbprkma-319" value="monitoring_option_idÂ int NOT NULL " style="shape=partialRectangle;overflow=hidden;connectable=0;fillColor=none;top=0;left=0;bottom=0;right=0;align=left;spacingLeft=6;fontStyle=1;strokeColor=#0A1F32;strokeWidth=2;fontColor=#0A1F32;" vertex="1" parent="p7Mw4wTtwR3t4Kbprkma-317">
          <mxGeometry x="30" width="269" height="30" as="geometry">
            <mxRectangle width="269" height="30" as="alternateBounds" />
          </mxGeometry>
        </mxCell>
        <mxCell id="p7Mw4wTtwR3t4Kbprkma-320" value="" style="shape=partialRectangle;collapsible=0;dropTarget=0;pointerEvents=0;fillColor=none;points=[[0,0.5],[1,0.5]];portConstraint=eastwest;top=0;left=0;right=0;bottom=0;strokeWidth=2;strokeColor=#0A1F32;fontColor=#0A1F32;" vertex="1" parent="p7Mw4wTtwR3t4Kbprkma-316">
          <mxGeometry y="60" width="299" height="30" as="geometry" />
        </mxCell>
        <mxCell id="p7Mw4wTtwR3t4Kbprkma-321" value="FK1" style="shape=partialRectangle;overflow=hidden;connectable=0;fillColor=none;top=0;left=0;bottom=0;right=0;fontColor=#0A1F32;" vertex="1" parent="p7Mw4wTtwR3t4Kbprkma-320">
          <mxGeometry width="30" height="30" as="geometry">
            <mxRectangle width="30" height="30" as="alternateBounds" />
          </mxGeometry>
        </mxCell>
        <mxCell id="p7Mw4wTtwR3t4Kbprkma-322" value="community_id int NOT NULL" style="shape=partialRectangle;overflow=hidden;connectable=0;fillColor=none;top=0;left=0;bottom=0;right=0;align=left;spacingLeft=6;fontColor=#0A1F32;" vertex="1" parent="p7Mw4wTtwR3t4Kbprkma-320">
          <mxGeometry x="30" width="269" height="30" as="geometry">
            <mxRectangle width="269" height="30" as="alternateBounds" />
          </mxGeometry>
        </mxCell>
        <mxCell id="p7Mw4wTtwR3t4Kbprkma-323" value="" style="shape=partialRectangle;collapsible=0;dropTarget=0;pointerEvents=0;fillColor=none;points=[[0,0.5],[1,0.5]];portConstraint=eastwest;top=0;left=0;right=0;bottom=0;fontColor=#0A1F32;" vertex="1" parent="p7Mw4wTtwR3t4Kbprkma-316">
          <mxGeometry y="90" width="299" height="30" as="geometry" />
        </mxCell>
        <mxCell id="p7Mw4wTtwR3t4Kbprkma-324" value="FK2" style="shape=partialRectangle;overflow=hidden;connectable=0;fillColor=none;top=0;left=0;bottom=0;right=0;fontColor=#0A1F32;" vertex="1" parent="p7Mw4wTtwR3t4Kbprkma-323">
          <mxGeometry width="30" height="30" as="geometry">
            <mxRectangle width="30" height="30" as="alternateBounds" />
          </mxGeometry>
        </mxCell>
        <mxCell id="p7Mw4wTtwR3t4Kbprkma-325" value="emergency_id int NOT NULL" style="shape=partialRectangle;overflow=hidden;connectable=0;fillColor=none;top=0;left=0;bottom=0;right=0;align=left;spacingLeft=6;fontColor=#0A1F32;" vertex="1" parent="p7Mw4wTtwR3t4Kbprkma-323">
          <mxGeometry x="30" width="269" height="30" as="geometry">
            <mxRectangle width="269" height="30" as="alternateBounds" />
          </mxGeometry>
        </mxCell>
        <mxCell id="p7Mw4wTtwR3t4Kbprkma-326" value="" style="endArrow=none;html=1;rounded=0;strokeWidth=2;strokeColor=#0A1F32;exitX=0;exitY=0.997;exitDx=0;exitDy=0;exitPerimeter=0;entryX=0.999;entryY=1.023;entryDx=0;entryDy=0;entryPerimeter=0;fontColor=#0A1F32;" edge="1" parent="p7Mw4wTtwR3t4Kbprkma-316" source="p7Mw4wTtwR3t4Kbprkma-317" target="p7Mw4wTtwR3t4Kbprkma-317">
          <mxGeometry width="50" height="50" relative="1" as="geometry">
            <mxPoint x="149" y="60" as="sourcePoint" />
            <mxPoint x="199" y="10" as="targetPoint" />
          </mxGeometry>
        </mxCell>
        <mxCell id="p7Mw4wTtwR3t4Kbprkma-327" value="Monitored_emergency" style="shape=table;startSize=30;container=1;collapsible=1;childLayout=tableLayout;fixedRows=1;rowLines=0;fontStyle=1;align=center;resizeLast=1;strokeWidth=2;strokeColor=#0A1F32;fillColor=#344756;fontColor=#D2D2D2;fontSize=14;" vertex="1" parent="1">
          <mxGeometry x="328" y="-10" width="299" height="120" as="geometry" />
        </mxCell>
        <mxCell id="p7Mw4wTtwR3t4Kbprkma-328" value="" style="shape=partialRectangle;collapsible=0;dropTarget=0;pointerEvents=0;fillColor=none;points=[[0,0.5],[1,0.5]];portConstraint=eastwest;top=0;left=0;right=0;bottom=1;fontColor=#0A1F32;" vertex="1" parent="p7Mw4wTtwR3t4Kbprkma-327">
          <mxGeometry y="30" width="299" height="30" as="geometry" />
        </mxCell>
        <mxCell id="p7Mw4wTtwR3t4Kbprkma-329" value="PK" style="shape=partialRectangle;overflow=hidden;connectable=0;fillColor=none;top=0;left=0;bottom=0;right=0;fontStyle=1;fontColor=#0A1F32;" vertex="1" parent="p7Mw4wTtwR3t4Kbprkma-328">
          <mxGeometry width="30" height="30" as="geometry">
            <mxRectangle width="30" height="30" as="alternateBounds" />
          </mxGeometry>
        </mxCell>
        <mxCell id="p7Mw4wTtwR3t4Kbprkma-330" value="emergency_id int NOT NULL " style="shape=partialRectangle;overflow=hidden;connectable=0;fillColor=none;top=0;left=0;bottom=0;right=0;align=left;spacingLeft=6;fontStyle=1;strokeColor=#0A1F32;strokeWidth=2;fontColor=#0A1F32;" vertex="1" parent="p7Mw4wTtwR3t4Kbprkma-328">
          <mxGeometry x="30" width="269" height="30" as="geometry">
            <mxRectangle width="269" height="30" as="alternateBounds" />
          </mxGeometry>
        </mxCell>
        <mxCell id="p7Mw4wTtwR3t4Kbprkma-331" value="" style="shape=partialRectangle;collapsible=0;dropTarget=0;pointerEvents=0;fillColor=none;points=[[0,0.5],[1,0.5]];portConstraint=eastwest;top=0;left=0;right=0;bottom=0;strokeWidth=2;strokeColor=#0A1F32;fontColor=#0A1F32;" vertex="1" parent="p7Mw4wTtwR3t4Kbprkma-327">
          <mxGeometry y="60" width="299" height="30" as="geometry" />
        </mxCell>
        <mxCell id="p7Mw4wTtwR3t4Kbprkma-332" value="FK1" style="shape=partialRectangle;overflow=hidden;connectable=0;fillColor=none;top=0;left=0;bottom=0;right=0;fontColor=#0A1F32;" vertex="1" parent="p7Mw4wTtwR3t4Kbprkma-331">
          <mxGeometry width="30" height="30" as="geometry">
            <mxRectangle width="30" height="30" as="alternateBounds" />
          </mxGeometry>
        </mxCell>
        <mxCell id="p7Mw4wTtwR3t4Kbprkma-333" value="monitoring_option_idÂ int NOT NULL" style="shape=partialRectangle;overflow=hidden;connectable=0;fillColor=none;top=0;left=0;bottom=0;right=0;align=left;spacingLeft=6;fontColor=#0A1F32;" vertex="1" parent="p7Mw4wTtwR3t4Kbprkma-331">
          <mxGeometry x="30" width="269" height="30" as="geometry">
            <mxRectangle width="269" height="30" as="alternateBounds" />
          </mxGeometry>
        </mxCell>
        <mxCell id="p7Mw4wTtwR3t4Kbprkma-334" value="" style="shape=partialRectangle;collapsible=0;dropTarget=0;pointerEvents=0;fillColor=none;points=[[0,0.5],[1,0.5]];portConstraint=eastwest;top=0;left=0;right=0;bottom=0;fontColor=#0A1F32;" vertex="1" parent="p7Mw4wTtwR3t4Kbprkma-327">
          <mxGeometry y="90" width="299" height="30" as="geometry" />
        </mxCell>
        <mxCell id="p7Mw4wTtwR3t4Kbprkma-335" value="" style="shape=partialRectangle;overflow=hidden;connectable=0;fillColor=none;top=0;left=0;bottom=0;right=0;fontColor=#0A1F32;" vertex="1" parent="p7Mw4wTtwR3t4Kbprkma-334">
          <mxGeometry width="30" height="30" as="geometry">
            <mxRectangle width="30" height="30" as="alternateBounds" />
          </mxGeometry>
        </mxCell>
        <mxCell id="p7Mw4wTtwR3t4Kbprkma-336" value="emergency_name char(50) NOT NULL" style="shape=partialRectangle;overflow=hidden;connectable=0;fillColor=none;top=0;left=0;bottom=0;right=0;align=left;spacingLeft=6;fontColor=#0A1F32;" vertex="1" parent="p7Mw4wTtwR3t4Kbprkma-334">
          <mxGeometry x="30" width="269" height="30" as="geometry">
            <mxRectangle width="269" height="30" as="alternateBounds" />
          </mxGeometry>
        </mxCell>
        <mxCell id="p7Mw4wTtwR3t4Kbprkma-337" value="" style="endArrow=none;html=1;rounded=0;strokeWidth=2;strokeColor=#0A1F32;exitX=0;exitY=0.997;exitDx=0;exitDy=0;exitPerimeter=0;entryX=0.999;entryY=1.023;entryDx=0;entryDy=0;entryPerimeter=0;fontColor=#0A1F32;" edge="1" parent="p7Mw4wTtwR3t4Kbprkma-327" source="p7Mw4wTtwR3t4Kbprkma-328" target="p7Mw4wTtwR3t4Kbprkma-328">
          <mxGeometry width="50" height="50" relative="1" as="geometry">
            <mxPoint x="149" y="60" as="sourcePoint" />
            <mxPoint x="199" y="10" as="targetPoint" />
          </mxGeometry>
        </mxCell>
        <mxCell id="p7Mw4wTtwR3t4Kbprkma-338" value="" style="edgeStyle=orthogonalEdgeStyle;endArrow=ERzeroToMany;startArrow=ERone;endFill=1;startFill=0;entryX=0;entryY=0.5;entryDx=0;entryDy=0;strokeWidth=2;strokeColor=#FF4C2B;exitX=1;exitY=0.127;exitDx=0;exitDy=0;exitPerimeter=0;" edge="1" parent="1" source="p7Mw4wTtwR3t4Kbprkma-216" target="p7Mw4wTtwR3t4Kbprkma-317">
          <mxGeometry width="100" height="100" relative="1" as="geometry">
            <mxPoint x="260" y="-100" as="sourcePoint" />
            <mxPoint x="199.52" y="45" as="targetPoint" />
            <Array as="points" />
          </mxGeometry>
        </mxCell>
        <mxCell id="p7Mw4wTtwR3t4Kbprkma-339" value="" style="edgeStyle=orthogonalEdgeStyle;endArrow=ERzeroToMany;startArrow=ERone;endFill=1;startFill=0;entryX=1;entryY=0.5;entryDx=0;entryDy=0;strokeWidth=2;strokeColor=#FF4C2B;exitX=1;exitY=0.5;exitDx=0;exitDy=0;" edge="1" parent="1" source="p7Mw4wTtwR3t4Kbprkma-331" target="p7Mw4wTtwR3t4Kbprkma-317">
          <mxGeometry width="100" height="100" relative="1" as="geometry">
            <mxPoint x="601" y="-25" as="sourcePoint" />
            <mxPoint x="667" y="-80" as="targetPoint" />
            <Array as="points">
              <mxPoint x="650" y="65" />
              <mxPoint x="650" y="-115" />
            </Array>
          </mxGeometry>
        </mxCell>
        <mxCell id="p7Mw4wTtwR3t4Kbprkma-343" value="&lt;font style=&quot;font-size: 19px;&quot; color=&quot;#d2d2d2&quot;&gt;&lt;b style=&quot;&quot;&gt;&lt;br&gt;&lt;/b&gt;&lt;/font&gt;" style="verticalLabelPosition=middle;verticalAlign=middle;html=1;shape=mxgraph.basic.banner;strokeColor=#344756;strokeWidth=2;fillColor=#FF4C2B;labelPosition=center;align=center;" vertex="1" parent="1">
          <mxGeometry x="-320" y="-440" width="890" height="50" as="geometry" />
        </mxCell>
        <mxCell id="p7Mw4wTtwR3t4Kbprkma-345" value="&lt;b style=&quot;font-size: 21px;&quot;&gt;ER-Ð´Ð¸Ð°Ð³ÑÐ°Ð¼Ð¼Ð° Ð´Ð»Ñ Ð¿ÑÐ¸Ð»Ð¾Ð¶ÐµÐ½Ð¸Ñ NEAR&lt;br style=&quot;font-size: 21px;&quot;&gt;&lt;/b&gt;" style="text;strokeColor=none;fillColor=none;html=1;fontSize=21;fontStyle=1;verticalAlign=middle;align=center;fontColor=#D2D2D2;" vertex="1" parent="1">
          <mxGeometry x="-95" y="-442" width="440" height="40" as="geometry" />
        </mxCell>
        <mxCell id="p7Mw4wTtwR3t4Kbprkma-346" value="Subscriber_subscribtion_list" style="shape=table;startSize=30;container=1;collapsible=1;childLayout=tableLayout;fixedRows=1;rowLines=0;fontStyle=1;align=center;resizeLast=1;strokeWidth=2;strokeColor=#0A1F32;fillColor=#344756;fontColor=#D2D2D2;fontSize=14;" vertex="1" parent="1">
          <mxGeometry x="356" y="159" width="299" height="120" as="geometry" />
        </mxCell>
        <mxCell id="p7Mw4wTtwR3t4Kbprkma-347" value="" style="shape=partialRectangle;collapsible=0;dropTarget=0;pointerEvents=0;fillColor=none;points=[[0,0.5],[1,0.5]];portConstraint=eastwest;top=0;left=0;right=0;bottom=1;fontColor=#0A1F32;" vertex="1" parent="p7Mw4wTtwR3t4Kbprkma-346">
          <mxGeometry y="30" width="299" height="30" as="geometry" />
        </mxCell>
        <mxCell id="p7Mw4wTtwR3t4Kbprkma-348" value="PK" style="shape=partialRectangle;overflow=hidden;connectable=0;fillColor=none;top=0;left=0;bottom=0;right=0;fontStyle=1;fontColor=#0A1F32;" vertex="1" parent="p7Mw4wTtwR3t4Kbprkma-347">
          <mxGeometry width="30" height="30" as="geometry">
            <mxRectangle width="30" height="30" as="alternateBounds" />
          </mxGeometry>
        </mxCell>
        <mxCell id="p7Mw4wTtwR3t4Kbprkma-349" value="subscribers_subscririons_idÂ int NOT NULL " style="shape=partialRectangle;overflow=hidden;connectable=0;fillColor=none;top=0;left=0;bottom=0;right=0;align=left;spacingLeft=6;fontStyle=1;strokeColor=#0A1F32;strokeWidth=2;fontColor=#0A1F32;" vertex="1" parent="p7Mw4wTtwR3t4Kbprkma-347">
          <mxGeometry x="30" width="269" height="30" as="geometry">
            <mxRectangle width="269" height="30" as="alternateBounds" />
          </mxGeometry>
        </mxCell>
        <mxCell id="p7Mw4wTtwR3t4Kbprkma-350" value="" style="shape=partialRectangle;collapsible=0;dropTarget=0;pointerEvents=0;fillColor=none;points=[[0,0.5],[1,0.5]];portConstraint=eastwest;top=0;left=0;right=0;bottom=0;strokeWidth=2;strokeColor=#0A1F32;fontColor=#0A1F32;" vertex="1" parent="p7Mw4wTtwR3t4Kbprkma-346">
          <mxGeometry y="60" width="299" height="30" as="geometry" />
        </mxCell>
        <mxCell id="p7Mw4wTtwR3t4Kbprkma-351" value="FK1" style="shape=partialRectangle;overflow=hidden;connectable=0;fillColor=none;top=0;left=0;bottom=0;right=0;fontColor=#0A1F32;" vertex="1" parent="p7Mw4wTtwR3t4Kbprkma-350">
          <mxGeometry width="30" height="30" as="geometry">
            <mxRectangle width="30" height="30" as="alternateBounds" />
          </mxGeometry>
        </mxCell>
        <mxCell id="p7Mw4wTtwR3t4Kbprkma-352" value="user_idÂ int NOT NULL" style="shape=partialRectangle;overflow=hidden;connectable=0;fillColor=none;top=0;left=0;bottom=0;right=0;align=left;spacingLeft=6;fontColor=#0A1F32;" vertex="1" parent="p7Mw4wTtwR3t4Kbprkma-350">
          <mxGeometry x="30" width="269" height="30" as="geometry">
            <mxRectangle width="269" height="30" as="alternateBounds" />
          </mxGeometry>
        </mxCell>
        <mxCell id="p7Mw4wTtwR3t4Kbprkma-353" value="" style="shape=partialRectangle;collapsible=0;dropTarget=0;pointerEvents=0;fillColor=none;points=[[0,0.5],[1,0.5]];portConstraint=eastwest;top=0;left=0;right=0;bottom=0;fontColor=#0A1F32;" vertex="1" parent="p7Mw4wTtwR3t4Kbprkma-346">
          <mxGeometry y="90" width="299" height="30" as="geometry" />
        </mxCell>
        <mxCell id="p7Mw4wTtwR3t4Kbprkma-354" value="FK2" style="shape=partialRectangle;overflow=hidden;connectable=0;fillColor=none;top=0;left=0;bottom=0;right=0;fontColor=#0A1F32;" vertex="1" parent="p7Mw4wTtwR3t4Kbprkma-353">
          <mxGeometry width="30" height="30" as="geometry">
            <mxRectangle width="30" height="30" as="alternateBounds" />
          </mxGeometry>
        </mxCell>
        <mxCell id="p7Mw4wTtwR3t4Kbprkma-355" value="communiti_id int NOT NULL" style="shape=partialRectangle;overflow=hidden;connectable=0;fillColor=none;top=0;left=0;bottom=0;right=0;align=left;spacingLeft=6;fontColor=#0A1F32;" vertex="1" parent="p7Mw4wTtwR3t4Kbprkma-353">
          <mxGeometry x="30" width="269" height="30" as="geometry">
            <mxRectangle width="269" height="30" as="alternateBounds" />
          </mxGeometry>
        </mxCell>
        <mxCell id="p7Mw4wTtwR3t4Kbprkma-356" value="" style="endArrow=none;html=1;rounded=0;strokeWidth=2;strokeColor=#0A1F32;exitX=0;exitY=0.997;exitDx=0;exitDy=0;exitPerimeter=0;entryX=0.999;entryY=1.023;entryDx=0;entryDy=0;entryPerimeter=0;fontColor=#0A1F32;" edge="1" parent="p7Mw4wTtwR3t4Kbprkma-346" source="p7Mw4wTtwR3t4Kbprkma-347" target="p7Mw4wTtwR3t4Kbprkma-347">
          <mxGeometry width="50" height="50" relative="1" as="geometry">
            <mxPoint x="149" y="60" as="sourcePoint" />
            <mxPoint x="199" y="10" as="targetPoint" />
          </mxGeometry>
        </mxCell>
        <mxCell id="p7Mw4wTtwR3t4Kbprkma-357" value="Group_data_list" style="shape=table;startSize=30;container=1;collapsible=1;childLayout=tableLayout;fixedRows=1;rowLines=0;fontStyle=1;align=center;resizeLast=1;strokeWidth=2;strokeColor=#0A1F32;fillColor=#344756;fontColor=#D2D2D2;fontSize=14;" vertex="1" parent="1">
          <mxGeometry x="-409.25" y="320" width="299" height="120" as="geometry" />
        </mxCell>
        <mxCell id="p7Mw4wTtwR3t4Kbprkma-358" value="" style="shape=partialRectangle;collapsible=0;dropTarget=0;pointerEvents=0;fillColor=none;points=[[0,0.5],[1,0.5]];portConstraint=eastwest;top=0;left=0;right=0;bottom=1;fontColor=#0A1F32;" vertex="1" parent="p7Mw4wTtwR3t4Kbprkma-357">
          <mxGeometry y="30" width="299" height="30" as="geometry" />
        </mxCell>
        <mxCell id="p7Mw4wTtwR3t4Kbprkma-359" value="PK" style="shape=partialRectangle;overflow=hidden;connectable=0;fillColor=none;top=0;left=0;bottom=0;right=0;fontStyle=1;fontColor=#0A1F32;" vertex="1" parent="p7Mw4wTtwR3t4Kbprkma-358">
          <mxGeometry width="30" height="30" as="geometry">
            <mxRectangle width="30" height="30" as="alternateBounds" />
          </mxGeometry>
        </mxCell>
        <mxCell id="p7Mw4wTtwR3t4Kbprkma-360" value="group_data_idÂ  int NOT NULL" style="shape=partialRectangle;overflow=hidden;connectable=0;fillColor=none;top=0;left=0;bottom=0;right=0;align=left;spacingLeft=6;fontStyle=1;strokeColor=#0A1F32;strokeWidth=2;fontColor=#0A1F32;" vertex="1" parent="p7Mw4wTtwR3t4Kbprkma-358">
          <mxGeometry x="30" width="269" height="30" as="geometry">
            <mxRectangle width="269" height="30" as="alternateBounds" />
          </mxGeometry>
        </mxCell>
        <mxCell id="p7Mw4wTtwR3t4Kbprkma-361" value="" style="shape=partialRectangle;collapsible=0;dropTarget=0;pointerEvents=0;fillColor=none;points=[[0,0.5],[1,0.5]];portConstraint=eastwest;top=0;left=0;right=0;bottom=0;strokeWidth=2;strokeColor=#0A1F32;fontColor=#0A1F32;" vertex="1" parent="p7Mw4wTtwR3t4Kbprkma-357">
          <mxGeometry y="60" width="299" height="30" as="geometry" />
        </mxCell>
        <mxCell id="p7Mw4wTtwR3t4Kbprkma-362" value="FK1" style="shape=partialRectangle;overflow=hidden;connectable=0;fillColor=none;top=0;left=0;bottom=0;right=0;fontColor=#0A1F32;" vertex="1" parent="p7Mw4wTtwR3t4Kbprkma-361">
          <mxGeometry width="30" height="30" as="geometry">
            <mxRectangle width="30" height="30" as="alternateBounds" />
          </mxGeometry>
        </mxCell>
        <mxCell id="p7Mw4wTtwR3t4Kbprkma-363" value="user_id int NOT NULL" style="shape=partialRectangle;overflow=hidden;connectable=0;fillColor=none;top=0;left=0;bottom=0;right=0;align=left;spacingLeft=6;fontColor=#0A1F32;" vertex="1" parent="p7Mw4wTtwR3t4Kbprkma-361">
          <mxGeometry x="30" width="269" height="30" as="geometry">
            <mxRectangle width="269" height="30" as="alternateBounds" />
          </mxGeometry>
        </mxCell>
        <mxCell id="p7Mw4wTtwR3t4Kbprkma-364" value="" style="shape=partialRectangle;collapsible=0;dropTarget=0;pointerEvents=0;fillColor=none;points=[[0,0.5],[1,0.5]];portConstraint=eastwest;top=0;left=0;right=0;bottom=0;fontColor=#0A1F32;" vertex="1" parent="p7Mw4wTtwR3t4Kbprkma-357">
          <mxGeometry y="90" width="299" height="30" as="geometry" />
        </mxCell>
        <mxCell id="p7Mw4wTtwR3t4Kbprkma-365" value="FK2" style="shape=partialRectangle;overflow=hidden;connectable=0;fillColor=none;top=0;left=0;bottom=0;right=0;fontColor=#0A1F32;" vertex="1" parent="p7Mw4wTtwR3t4Kbprkma-364">
          <mxGeometry width="30" height="30" as="geometry">
            <mxRectangle width="30" height="30" as="alternateBounds" />
          </mxGeometry>
        </mxCell>
        <mxCell id="p7Mw4wTtwR3t4Kbprkma-366" value="group_id int NOT NULL" style="shape=partialRectangle;overflow=hidden;connectable=0;fillColor=none;top=0;left=0;bottom=0;right=0;align=left;spacingLeft=6;fontColor=#0A1F32;" vertex="1" parent="p7Mw4wTtwR3t4Kbprkma-364">
          <mxGeometry x="30" width="269" height="30" as="geometry">
            <mxRectangle width="269" height="30" as="alternateBounds" />
          </mxGeometry>
        </mxCell>
        <mxCell id="p7Mw4wTtwR3t4Kbprkma-367" value="" style="endArrow=none;html=1;rounded=0;strokeWidth=2;strokeColor=#0A1F32;exitX=0;exitY=0.997;exitDx=0;exitDy=0;exitPerimeter=0;entryX=0.999;entryY=1.023;entryDx=0;entryDy=0;entryPerimeter=0;fontColor=#0A1F32;" edge="1" parent="p7Mw4wTtwR3t4Kbprkma-357" source="p7Mw4wTtwR3t4Kbprkma-358" target="p7Mw4wTtwR3t4Kbprkma-358">
          <mxGeometry width="50" height="50" relative="1" as="geometry">
            <mxPoint x="149" y="60" as="sourcePoint" />
            <mxPoint x="199" y="10" as="targetPoint" />
          </mxGeometry>
        </mxCell>
        <mxCell id="p7Mw4wTtwR3t4Kbprkma-368" value="Group_info" style="shape=table;startSize=30;container=1;collapsible=1;childLayout=tableLayout;fixedRows=1;rowLines=0;fontStyle=1;align=center;resizeLast=1;strokeWidth=2;strokeColor=#0A1F32;fillColor=#344756;fontColor=#D2D2D2;fontSize=14;" vertex="1" parent="1">
          <mxGeometry x="-409.5" y="470" width="299" height="180" as="geometry" />
        </mxCell>
        <mxCell id="p7Mw4wTtwR3t4Kbprkma-369" value="" style="shape=partialRectangle;collapsible=0;dropTarget=0;pointerEvents=0;fillColor=none;points=[[0,0.5],[1,0.5]];portConstraint=eastwest;top=0;left=0;right=0;bottom=1;fontColor=#0A1F32;" vertex="1" parent="p7Mw4wTtwR3t4Kbprkma-368">
          <mxGeometry y="30" width="299" height="30" as="geometry" />
        </mxCell>
        <mxCell id="p7Mw4wTtwR3t4Kbprkma-370" value="PK" style="shape=partialRectangle;overflow=hidden;connectable=0;fillColor=none;top=0;left=0;bottom=0;right=0;fontStyle=1;fontColor=#0A1F32;" vertex="1" parent="p7Mw4wTtwR3t4Kbprkma-369">
          <mxGeometry width="30" height="30" as="geometry">
            <mxRectangle width="30" height="30" as="alternateBounds" />
          </mxGeometry>
        </mxCell>
        <mxCell id="p7Mw4wTtwR3t4Kbprkma-371" value="group_idÂ int NOT NULL " style="shape=partialRectangle;overflow=hidden;connectable=0;fillColor=none;top=0;left=0;bottom=0;right=0;align=left;spacingLeft=6;fontStyle=1;strokeColor=#0A1F32;strokeWidth=2;fontColor=#0A1F32;" vertex="1" parent="p7Mw4wTtwR3t4Kbprkma-369">
          <mxGeometry x="30" width="269" height="30" as="geometry">
            <mxRectangle width="269" height="30" as="alternateBounds" />
          </mxGeometry>
        </mxCell>
        <mxCell id="p7Mw4wTtwR3t4Kbprkma-372" value="" style="shape=partialRectangle;collapsible=0;dropTarget=0;pointerEvents=0;fillColor=none;points=[[0,0.5],[1,0.5]];portConstraint=eastwest;top=0;left=0;right=0;bottom=0;strokeWidth=2;strokeColor=#0A1F32;fontColor=#0A1F32;" vertex="1" parent="p7Mw4wTtwR3t4Kbprkma-368">
          <mxGeometry y="60" width="299" height="30" as="geometry" />
        </mxCell>
        <mxCell id="p7Mw4wTtwR3t4Kbprkma-373" value="FK1" style="shape=partialRectangle;overflow=hidden;connectable=0;fillColor=none;top=0;left=0;bottom=0;right=0;fontColor=#0A1F32;" vertex="1" parent="p7Mw4wTtwR3t4Kbprkma-372">
          <mxGeometry width="30" height="30" as="geometry">
            <mxRectangle width="30" height="30" as="alternateBounds" />
          </mxGeometry>
        </mxCell>
        <mxCell id="p7Mw4wTtwR3t4Kbprkma-374" value="group_data_id int NOT NULL" style="shape=partialRectangle;overflow=hidden;connectable=0;fillColor=none;top=0;left=0;bottom=0;right=0;align=left;spacingLeft=6;fontColor=#0A1F32;" vertex="1" parent="p7Mw4wTtwR3t4Kbprkma-372">
          <mxGeometry x="30" width="269" height="30" as="geometry">
            <mxRectangle width="269" height="30" as="alternateBounds" />
          </mxGeometry>
        </mxCell>
        <mxCell id="p7Mw4wTtwR3t4Kbprkma-375" value="" style="shape=partialRectangle;collapsible=0;dropTarget=0;pointerEvents=0;fillColor=none;points=[[0,0.5],[1,0.5]];portConstraint=eastwest;top=0;left=0;right=0;bottom=0;fontColor=#0A1F32;" vertex="1" parent="p7Mw4wTtwR3t4Kbprkma-368">
          <mxGeometry y="90" width="299" height="30" as="geometry" />
        </mxCell>
        <mxCell id="p7Mw4wTtwR3t4Kbprkma-376" value="" style="shape=partialRectangle;overflow=hidden;connectable=0;fillColor=none;top=0;left=0;bottom=0;right=0;fontColor=#0A1F32;" vertex="1" parent="p7Mw4wTtwR3t4Kbprkma-375">
          <mxGeometry width="30" height="30" as="geometry">
            <mxRectangle width="30" height="30" as="alternateBounds" />
          </mxGeometry>
        </mxCell>
        <mxCell id="p7Mw4wTtwR3t4Kbprkma-377" value="group_name char(50) NOT NULL" style="shape=partialRectangle;overflow=hidden;connectable=0;fillColor=none;top=0;left=0;bottom=0;right=0;align=left;spacingLeft=6;fontColor=#0A1F32;" vertex="1" parent="p7Mw4wTtwR3t4Kbprkma-375">
          <mxGeometry x="30" width="269" height="30" as="geometry">
            <mxRectangle width="269" height="30" as="alternateBounds" />
          </mxGeometry>
        </mxCell>
        <mxCell id="p7Mw4wTtwR3t4Kbprkma-378" value="" style="endArrow=none;html=1;rounded=0;strokeWidth=2;strokeColor=#0A1F32;exitX=0;exitY=0.997;exitDx=0;exitDy=0;exitPerimeter=0;entryX=0.999;entryY=1.023;entryDx=0;entryDy=0;entryPerimeter=0;fontColor=#0A1F32;" edge="1" parent="p7Mw4wTtwR3t4Kbprkma-368" source="p7Mw4wTtwR3t4Kbprkma-369" target="p7Mw4wTtwR3t4Kbprkma-369">
          <mxGeometry width="50" height="50" relative="1" as="geometry">
            <mxPoint x="149" y="60" as="sourcePoint" />
            <mxPoint x="199" y="10" as="targetPoint" />
          </mxGeometry>
        </mxCell>
        <mxCell id="p7Mw4wTtwR3t4Kbprkma-389" value="" style="shape=tableRow;horizontal=0;startSize=0;swimlaneHead=0;swimlaneBody=0;fillColor=none;collapsible=0;dropTarget=0;points=[[0,0.5],[1,0.5]];portConstraint=eastwest;top=0;left=0;right=0;bottom=0;" vertex="1" parent="p7Mw4wTtwR3t4Kbprkma-368">
          <mxGeometry y="120" width="299" height="30" as="geometry" />
        </mxCell>
        <mxCell id="p7Mw4wTtwR3t4Kbprkma-390" value="" style="shape=partialRectangle;connectable=0;fillColor=none;top=0;left=0;bottom=0;right=0;editable=1;overflow=hidden;" vertex="1" parent="p7Mw4wTtwR3t4Kbprkma-389">
          <mxGeometry width="30" height="30" as="geometry">
            <mxRectangle width="30" height="30" as="alternateBounds" />
          </mxGeometry>
        </mxCell>
        <mxCell id="p7Mw4wTtwR3t4Kbprkma-391" value="group_description VARCHAR NOT NULL" style="shape=partialRectangle;connectable=0;fillColor=none;top=0;left=0;bottom=0;right=0;align=left;spacingLeft=6;overflow=hidden;fontColor=#0A1F32;" vertex="1" parent="p7Mw4wTtwR3t4Kbprkma-389">
          <mxGeometry x="30" width="269" height="30" as="geometry">
            <mxRectangle width="269" height="30" as="alternateBounds" />
          </mxGeometry>
        </mxCell>
        <mxCell id="p7Mw4wTtwR3t4Kbprkma-395" value="" style="shape=tableRow;horizontal=0;startSize=0;swimlaneHead=0;swimlaneBody=0;fillColor=none;collapsible=0;dropTarget=0;points=[[0,0.5],[1,0.5]];portConstraint=eastwest;top=0;left=0;right=0;bottom=0;" vertex="1" parent="p7Mw4wTtwR3t4Kbprkma-368">
          <mxGeometry y="150" width="299" height="30" as="geometry" />
        </mxCell>
        <mxCell id="p7Mw4wTtwR3t4Kbprkma-396" value="FK2" style="shape=partialRectangle;connectable=0;fillColor=none;top=0;left=0;bottom=0;right=0;editable=1;overflow=hidden;fontColor=#0A1F32;" vertex="1" parent="p7Mw4wTtwR3t4Kbprkma-395">
          <mxGeometry width="30" height="30" as="geometry">
            <mxRectangle width="30" height="30" as="alternateBounds" />
          </mxGeometry>
        </mxCell>
        <mxCell id="p7Mw4wTtwR3t4Kbprkma-397" value="group_members_id int NOT NULL" style="shape=partialRectangle;connectable=0;fillColor=none;top=0;left=0;bottom=0;right=0;align=left;spacingLeft=6;overflow=hidden;fontColor=#0A1F32;" vertex="1" parent="p7Mw4wTtwR3t4Kbprkma-395">
          <mxGeometry x="30" width="269" height="30" as="geometry">
            <mxRectangle width="269" height="30" as="alternateBounds" />
          </mxGeometry>
        </mxCell>
        <mxCell id="p7Mw4wTtwR3t4Kbprkma-379" value="" style="edgeStyle=orthogonalEdgeStyle;endArrow=ERzeroToMany;startArrow=ERone;endFill=1;startFill=0;exitX=1;exitY=0.5;exitDx=0;exitDy=0;entryX=1;entryY=0.5;entryDx=0;entryDy=0;strokeWidth=2;strokeColor=#FF4C2B;" edge="1" parent="1" source="p7Mw4wTtwR3t4Kbprkma-242" target="p7Mw4wTtwR3t4Kbprkma-358">
          <mxGeometry width="100" height="100" relative="1" as="geometry">
            <mxPoint x="-100" y="10" as="sourcePoint" />
            <mxPoint x="-39" y="64" as="targetPoint" />
            <Array as="points">
              <mxPoint x="-80" y="60" />
              <mxPoint x="-80" y="365" />
            </Array>
          </mxGeometry>
        </mxCell>
        <mxCell id="p7Mw4wTtwR3t4Kbprkma-398" value="Group_members_list" style="shape=table;startSize=30;container=1;collapsible=1;childLayout=tableLayout;fixedRows=1;rowLines=0;fontStyle=1;align=center;resizeLast=1;strokeWidth=2;strokeColor=#0A1F32;fillColor=#344756;fontColor=#D2D2D2;fontSize=14;" vertex="1" parent="1">
          <mxGeometry x="-47.370000000000005" y="356" width="299" height="120" as="geometry" />
        </mxCell>
        <mxCell id="p7Mw4wTtwR3t4Kbprkma-399" value="" style="shape=partialRectangle;collapsible=0;dropTarget=0;pointerEvents=0;fillColor=none;points=[[0,0.5],[1,0.5]];portConstraint=eastwest;top=0;left=0;right=0;bottom=1;fontColor=#0A1F32;" vertex="1" parent="p7Mw4wTtwR3t4Kbprkma-398">
          <mxGeometry y="30" width="299" height="30" as="geometry" />
        </mxCell>
        <mxCell id="p7Mw4wTtwR3t4Kbprkma-400" value="PK" style="shape=partialRectangle;overflow=hidden;connectable=0;fillColor=none;top=0;left=0;bottom=0;right=0;fontStyle=1;fontColor=#0A1F32;" vertex="1" parent="p7Mw4wTtwR3t4Kbprkma-399">
          <mxGeometry width="30" height="30" as="geometry">
            <mxRectangle width="30" height="30" as="alternateBounds" />
          </mxGeometry>
        </mxCell>
        <mxCell id="p7Mw4wTtwR3t4Kbprkma-401" value="group_members_idÂ  int NOT NULL" style="shape=partialRectangle;overflow=hidden;connectable=0;fillColor=none;top=0;left=0;bottom=0;right=0;align=left;spacingLeft=6;fontStyle=1;strokeColor=#0A1F32;strokeWidth=2;fontColor=#0A1F32;" vertex="1" parent="p7Mw4wTtwR3t4Kbprkma-399">
          <mxGeometry x="30" width="269" height="30" as="geometry">
            <mxRectangle width="269" height="30" as="alternateBounds" />
          </mxGeometry>
        </mxCell>
        <mxCell id="p7Mw4wTtwR3t4Kbprkma-402" value="" style="shape=partialRectangle;collapsible=0;dropTarget=0;pointerEvents=0;fillColor=none;points=[[0,0.5],[1,0.5]];portConstraint=eastwest;top=0;left=0;right=0;bottom=0;strokeWidth=2;strokeColor=#0A1F32;fontColor=#0A1F32;" vertex="1" parent="p7Mw4wTtwR3t4Kbprkma-398">
          <mxGeometry y="60" width="299" height="30" as="geometry" />
        </mxCell>
        <mxCell id="p7Mw4wTtwR3t4Kbprkma-403" value="FK1" style="shape=partialRectangle;overflow=hidden;connectable=0;fillColor=none;top=0;left=0;bottom=0;right=0;fontColor=#0A1F32;" vertex="1" parent="p7Mw4wTtwR3t4Kbprkma-402">
          <mxGeometry width="30" height="30" as="geometry">
            <mxRectangle width="30" height="30" as="alternateBounds" />
          </mxGeometry>
        </mxCell>
        <mxCell id="p7Mw4wTtwR3t4Kbprkma-404" value="group_id int NOT NULL" style="shape=partialRectangle;overflow=hidden;connectable=0;fillColor=none;top=0;left=0;bottom=0;right=0;align=left;spacingLeft=6;fontColor=#0A1F32;" vertex="1" parent="p7Mw4wTtwR3t4Kbprkma-402">
          <mxGeometry x="30" width="269" height="30" as="geometry">
            <mxRectangle width="269" height="30" as="alternateBounds" />
          </mxGeometry>
        </mxCell>
        <mxCell id="p7Mw4wTtwR3t4Kbprkma-405" value="" style="shape=partialRectangle;collapsible=0;dropTarget=0;pointerEvents=0;fillColor=none;points=[[0,0.5],[1,0.5]];portConstraint=eastwest;top=0;left=0;right=0;bottom=0;fontColor=#0A1F32;" vertex="1" parent="p7Mw4wTtwR3t4Kbprkma-398">
          <mxGeometry y="90" width="299" height="30" as="geometry" />
        </mxCell>
        <mxCell id="p7Mw4wTtwR3t4Kbprkma-406" value="FK2" style="shape=partialRectangle;overflow=hidden;connectable=0;fillColor=none;top=0;left=0;bottom=0;right=0;fontColor=#0A1F32;" vertex="1" parent="p7Mw4wTtwR3t4Kbprkma-405">
          <mxGeometry width="30" height="30" as="geometry">
            <mxRectangle width="30" height="30" as="alternateBounds" />
          </mxGeometry>
        </mxCell>
        <mxCell id="p7Mw4wTtwR3t4Kbprkma-407" value="user_id int NOT NULL" style="shape=partialRectangle;overflow=hidden;connectable=0;fillColor=none;top=0;left=0;bottom=0;right=0;align=left;spacingLeft=6;fontColor=#0A1F32;" vertex="1" parent="p7Mw4wTtwR3t4Kbprkma-405">
          <mxGeometry x="30" width="269" height="30" as="geometry">
            <mxRectangle width="269" height="30" as="alternateBounds" />
          </mxGeometry>
        </mxCell>
        <mxCell id="p7Mw4wTtwR3t4Kbprkma-408" value="" style="endArrow=none;html=1;rounded=0;strokeWidth=2;strokeColor=#0A1F32;exitX=0;exitY=0.997;exitDx=0;exitDy=0;exitPerimeter=0;entryX=0.999;entryY=1.023;entryDx=0;entryDy=0;entryPerimeter=0;fontColor=#0A1F32;" edge="1" parent="p7Mw4wTtwR3t4Kbprkma-398" source="p7Mw4wTtwR3t4Kbprkma-399" target="p7Mw4wTtwR3t4Kbprkma-399">
          <mxGeometry width="50" height="50" relative="1" as="geometry">
            <mxPoint x="149" y="60" as="sourcePoint" />
            <mxPoint x="199" y="10" as="targetPoint" />
          </mxGeometry>
        </mxCell>
        <mxCell id="p7Mw4wTtwR3t4Kbprkma-426" value="" style="edgeStyle=orthogonalEdgeStyle;endArrow=ERzeroToMany;startArrow=ERone;endFill=1;startFill=0;exitX=0;exitY=0.5;exitDx=0;exitDy=0;entryX=0;entryY=0.5;entryDx=0;entryDy=0;strokeWidth=2;strokeColor=#FF4C2B;" edge="1" parent="1" source="p7Mw4wTtwR3t4Kbprkma-369" target="p7Mw4wTtwR3t4Kbprkma-358">
          <mxGeometry width="100" height="100" relative="1" as="geometry">
            <mxPoint x="-100" y="70" as="sourcePoint" />
            <mxPoint x="-100" y="375" as="targetPoint" />
            <Array as="points">
              <mxPoint x="-430" y="515" />
              <mxPoint x="-430" y="365" />
            </Array>
          </mxGeometry>
        </mxCell>
        <mxCell id="p7Mw4wTtwR3t4Kbprkma-427" value="" style="edgeStyle=orthogonalEdgeStyle;endArrow=ERzeroToMany;startArrow=ERone;endFill=1;startFill=0;strokeWidth=2;strokeColor=#9999FF;exitX=1;exitY=0.5;exitDx=0;exitDy=0;" edge="1" parent="1" source="p7Mw4wTtwR3t4Kbprkma-395">
          <mxGeometry width="100" height="100" relative="1" as="geometry">
            <mxPoint x="-100" y="40" as="sourcePoint" />
            <mxPoint x="-50" y="370" as="targetPoint" />
            <Array as="points">
              <mxPoint x="-80" y="635" />
              <mxPoint x="-80" y="370" />
            </Array>
          </mxGeometry>
        </mxCell>
        <mxCell id="p7Mw4wTtwR3t4Kbprkma-429" value="" style="edgeStyle=orthogonalEdgeStyle;fontSize=12;html=1;endArrow=ERzeroToMany;endFill=1;rounded=1;strokeColor=#99004D;strokeWidth=2;exitX=1;exitY=0.5;exitDx=0;exitDy=0;entryX=1;entryY=0.5;entryDx=0;entryDy=0;" edge="1" parent="1" source="C-vyLk0tnHw3VtMMgP7b-24" target="p7Mw4wTtwR3t4Kbprkma-399">
          <mxGeometry width="100" height="100" relative="1" as="geometry">
            <mxPoint x="340" y="450" as="sourcePoint" />
            <mxPoint x="440" y="350" as="targetPoint" />
            <Array as="points">
              <mxPoint x="-90" y="-305" />
              <mxPoint x="-90" y="20" />
              <mxPoint x="290" y="20" />
              <mxPoint x="290" y="401" />
            </Array>
          </mxGeometry>
        </mxCell>
        <mxCell id="p7Mw4wTtwR3t4Kbprkma-459" value="User_Notification_template_list" style="shape=table;startSize=30;container=1;collapsible=1;childLayout=tableLayout;fixedRows=1;rowLines=0;fontStyle=1;align=center;resizeLast=1;strokeWidth=2;strokeColor=#0A1F32;fillColor=#344756;fontColor=#D2D2D2;fontSize=14;" vertex="1" parent="1">
          <mxGeometry x="-26.5" y="528" width="299" height="120" as="geometry" />
        </mxCell>
        <mxCell id="p7Mw4wTtwR3t4Kbprkma-460" value="" style="shape=partialRectangle;collapsible=0;dropTarget=0;pointerEvents=0;fillColor=none;points=[[0,0.5],[1,0.5]];portConstraint=eastwest;top=0;left=0;right=0;bottom=1;fontColor=#0A1F32;" vertex="1" parent="p7Mw4wTtwR3t4Kbprkma-459">
          <mxGeometry y="30" width="299" height="30" as="geometry" />
        </mxCell>
        <mxCell id="p7Mw4wTtwR3t4Kbprkma-461" value="PK" style="shape=partialRectangle;overflow=hidden;connectable=0;fillColor=none;top=0;left=0;bottom=0;right=0;fontStyle=1;fontColor=#0A1F32;" vertex="1" parent="p7Mw4wTtwR3t4Kbprkma-460">
          <mxGeometry width="30" height="30" as="geometry">
            <mxRectangle width="30" height="30" as="alternateBounds" />
          </mxGeometry>
        </mxCell>
        <mxCell id="p7Mw4wTtwR3t4Kbprkma-462" value="user_templates_idÂ int NOT NULL " style="shape=partialRectangle;overflow=hidden;connectable=0;fillColor=none;top=0;left=0;bottom=0;right=0;align=left;spacingLeft=6;fontStyle=1;strokeColor=#0A1F32;strokeWidth=2;fontColor=#0A1F32;" vertex="1" parent="p7Mw4wTtwR3t4Kbprkma-460">
          <mxGeometry x="30" width="269" height="30" as="geometry">
            <mxRectangle width="269" height="30" as="alternateBounds" />
          </mxGeometry>
        </mxCell>
        <mxCell id="p7Mw4wTtwR3t4Kbprkma-463" value="" style="shape=partialRectangle;collapsible=0;dropTarget=0;pointerEvents=0;fillColor=none;points=[[0,0.5],[1,0.5]];portConstraint=eastwest;top=0;left=0;right=0;bottom=0;strokeWidth=2;strokeColor=#0A1F32;fontColor=#0A1F32;" vertex="1" parent="p7Mw4wTtwR3t4Kbprkma-459">
          <mxGeometry y="60" width="299" height="30" as="geometry" />
        </mxCell>
        <mxCell id="p7Mw4wTtwR3t4Kbprkma-464" value="FK1" style="shape=partialRectangle;overflow=hidden;connectable=0;fillColor=none;top=0;left=0;bottom=0;right=0;fontColor=#0A1F32;" vertex="1" parent="p7Mw4wTtwR3t4Kbprkma-463">
          <mxGeometry width="30" height="30" as="geometry">
            <mxRectangle width="30" height="30" as="alternateBounds" />
          </mxGeometry>
        </mxCell>
        <mxCell id="p7Mw4wTtwR3t4Kbprkma-465" value="user_id int NOT NULL" style="shape=partialRectangle;overflow=hidden;connectable=0;fillColor=none;top=0;left=0;bottom=0;right=0;align=left;spacingLeft=6;fontColor=#0A1F32;" vertex="1" parent="p7Mw4wTtwR3t4Kbprkma-463">
          <mxGeometry x="30" width="269" height="30" as="geometry">
            <mxRectangle width="269" height="30" as="alternateBounds" />
          </mxGeometry>
        </mxCell>
        <mxCell id="p7Mw4wTtwR3t4Kbprkma-466" value="" style="shape=partialRectangle;collapsible=0;dropTarget=0;pointerEvents=0;fillColor=none;points=[[0,0.5],[1,0.5]];portConstraint=eastwest;top=0;left=0;right=0;bottom=0;fontColor=#0A1F32;" vertex="1" parent="p7Mw4wTtwR3t4Kbprkma-459">
          <mxGeometry y="90" width="299" height="30" as="geometry" />
        </mxCell>
        <mxCell id="p7Mw4wTtwR3t4Kbprkma-467" value="FK2" style="shape=partialRectangle;overflow=hidden;connectable=0;fillColor=none;top=0;left=0;bottom=0;right=0;fontColor=#0A1F32;" vertex="1" parent="p7Mw4wTtwR3t4Kbprkma-466">
          <mxGeometry width="30" height="30" as="geometry">
            <mxRectangle width="30" height="30" as="alternateBounds" />
          </mxGeometry>
        </mxCell>
        <mxCell id="p7Mw4wTtwR3t4Kbprkma-468" value="template_idÂ int NOT NULL" style="shape=partialRectangle;overflow=hidden;connectable=0;fillColor=none;top=0;left=0;bottom=0;right=0;align=left;spacingLeft=6;fontColor=#0A1F32;" vertex="1" parent="p7Mw4wTtwR3t4Kbprkma-466">
          <mxGeometry x="30" width="269" height="30" as="geometry">
            <mxRectangle width="269" height="30" as="alternateBounds" />
          </mxGeometry>
        </mxCell>
        <mxCell id="p7Mw4wTtwR3t4Kbprkma-469" value="" style="endArrow=none;html=1;rounded=0;strokeWidth=2;strokeColor=#0A1F32;exitX=0;exitY=0.997;exitDx=0;exitDy=0;exitPerimeter=0;entryX=0.999;entryY=1.023;entryDx=0;entryDy=0;entryPerimeter=0;fontColor=#0A1F32;" edge="1" parent="p7Mw4wTtwR3t4Kbprkma-459" source="p7Mw4wTtwR3t4Kbprkma-460" target="p7Mw4wTtwR3t4Kbprkma-460">
          <mxGeometry width="50" height="50" relative="1" as="geometry">
            <mxPoint x="149" y="60" as="sourcePoint" />
            <mxPoint x="199" y="10" as="targetPoint" />
          </mxGeometry>
        </mxCell>
        <mxCell id="p7Mw4wTtwR3t4Kbprkma-481" value="Company_Notification_template_list" style="shape=table;startSize=30;container=1;collapsible=1;childLayout=tableLayout;fixedRows=1;rowLines=0;fontStyle=1;align=center;resizeLast=1;strokeWidth=2;strokeColor=#0A1F32;fillColor=#344756;fontColor=#D2D2D2;fontSize=14;" vertex="1" parent="1">
          <mxGeometry x="340" y="357" width="299" height="120" as="geometry" />
        </mxCell>
        <mxCell id="p7Mw4wTtwR3t4Kbprkma-482" value="" style="shape=partialRectangle;collapsible=0;dropTarget=0;pointerEvents=0;fillColor=none;points=[[0,0.5],[1,0.5]];portConstraint=eastwest;top=0;left=0;right=0;bottom=1;fontColor=#0A1F32;" vertex="1" parent="p7Mw4wTtwR3t4Kbprkma-481">
          <mxGeometry y="30" width="299" height="30" as="geometry" />
        </mxCell>
        <mxCell id="p7Mw4wTtwR3t4Kbprkma-483" value="PK" style="shape=partialRectangle;overflow=hidden;connectable=0;fillColor=none;top=0;left=0;bottom=0;right=0;fontStyle=1;fontColor=#0A1F32;" vertex="1" parent="p7Mw4wTtwR3t4Kbprkma-482">
          <mxGeometry width="30" height="30" as="geometry">
            <mxRectangle width="30" height="30" as="alternateBounds" />
          </mxGeometry>
        </mxCell>
        <mxCell id="p7Mw4wTtwR3t4Kbprkma-484" value="community_templates_idÂ int NOT NULL " style="shape=partialRectangle;overflow=hidden;connectable=0;fillColor=none;top=0;left=0;bottom=0;right=0;align=left;spacingLeft=6;fontStyle=1;strokeColor=#0A1F32;strokeWidth=2;fontColor=#0A1F32;" vertex="1" parent="p7Mw4wTtwR3t4Kbprkma-482">
          <mxGeometry x="30" width="269" height="30" as="geometry">
            <mxRectangle width="269" height="30" as="alternateBounds" />
          </mxGeometry>
        </mxCell>
        <mxCell id="p7Mw4wTtwR3t4Kbprkma-485" value="" style="shape=partialRectangle;collapsible=0;dropTarget=0;pointerEvents=0;fillColor=none;points=[[0,0.5],[1,0.5]];portConstraint=eastwest;top=0;left=0;right=0;bottom=0;strokeWidth=2;strokeColor=#0A1F32;fontColor=#0A1F32;" vertex="1" parent="p7Mw4wTtwR3t4Kbprkma-481">
          <mxGeometry y="60" width="299" height="30" as="geometry" />
        </mxCell>
        <mxCell id="p7Mw4wTtwR3t4Kbprkma-486" value="FK1" style="shape=partialRectangle;overflow=hidden;connectable=0;fillColor=none;top=0;left=0;bottom=0;right=0;fontColor=#0A1F32;" vertex="1" parent="p7Mw4wTtwR3t4Kbprkma-485">
          <mxGeometry width="30" height="30" as="geometry">
            <mxRectangle width="30" height="30" as="alternateBounds" />
          </mxGeometry>
        </mxCell>
        <mxCell id="p7Mw4wTtwR3t4Kbprkma-487" value="community_id int NOT NULL" style="shape=partialRectangle;overflow=hidden;connectable=0;fillColor=none;top=0;left=0;bottom=0;right=0;align=left;spacingLeft=6;fontColor=#0A1F32;" vertex="1" parent="p7Mw4wTtwR3t4Kbprkma-485">
          <mxGeometry x="30" width="269" height="30" as="geometry">
            <mxRectangle width="269" height="30" as="alternateBounds" />
          </mxGeometry>
        </mxCell>
        <mxCell id="p7Mw4wTtwR3t4Kbprkma-488" value="" style="shape=partialRectangle;collapsible=0;dropTarget=0;pointerEvents=0;fillColor=none;points=[[0,0.5],[1,0.5]];portConstraint=eastwest;top=0;left=0;right=0;bottom=0;fontColor=#0A1F32;" vertex="1" parent="p7Mw4wTtwR3t4Kbprkma-481">
          <mxGeometry y="90" width="299" height="30" as="geometry" />
        </mxCell>
        <mxCell id="p7Mw4wTtwR3t4Kbprkma-489" value="FK2" style="shape=partialRectangle;overflow=hidden;connectable=0;fillColor=none;top=0;left=0;bottom=0;right=0;fontColor=#0A1F32;" vertex="1" parent="p7Mw4wTtwR3t4Kbprkma-488">
          <mxGeometry width="30" height="30" as="geometry">
            <mxRectangle width="30" height="30" as="alternateBounds" />
          </mxGeometry>
        </mxCell>
        <mxCell id="p7Mw4wTtwR3t4Kbprkma-490" value="template_idÂ int NOT NULL" style="shape=partialRectangle;overflow=hidden;connectable=0;fillColor=none;top=0;left=0;bottom=0;right=0;align=left;spacingLeft=6;fontColor=#0A1F32;" vertex="1" parent="p7Mw4wTtwR3t4Kbprkma-488">
          <mxGeometry x="30" width="269" height="30" as="geometry">
            <mxRectangle width="269" height="30" as="alternateBounds" />
          </mxGeometry>
        </mxCell>
        <mxCell id="p7Mw4wTtwR3t4Kbprkma-491" value="" style="endArrow=none;html=1;rounded=0;strokeWidth=2;strokeColor=#0A1F32;exitX=0;exitY=0.997;exitDx=0;exitDy=0;exitPerimeter=0;entryX=0.999;entryY=1.023;entryDx=0;entryDy=0;entryPerimeter=0;fontColor=#0A1F32;" edge="1" parent="p7Mw4wTtwR3t4Kbprkma-481" source="p7Mw4wTtwR3t4Kbprkma-482" target="p7Mw4wTtwR3t4Kbprkma-482">
          <mxGeometry width="50" height="50" relative="1" as="geometry">
            <mxPoint x="149" y="60" as="sourcePoint" />
            <mxPoint x="199" y="10" as="targetPoint" />
          </mxGeometry>
        </mxCell>
        <mxCell id="p7Mw4wTtwR3t4Kbprkma-492" value="Notification_template_transfer" style="shape=table;startSize=30;container=1;collapsible=1;childLayout=tableLayout;fixedRows=1;rowLines=0;fontStyle=1;align=center;resizeLast=1;strokeWidth=2;strokeColor=#0A1F32;fillColor=#344756;fontColor=#D2D2D2;fontSize=14;" vertex="1" parent="1">
          <mxGeometry x="340" y="528" width="299" height="120" as="geometry" />
        </mxCell>
        <mxCell id="p7Mw4wTtwR3t4Kbprkma-493" value="" style="shape=partialRectangle;collapsible=0;dropTarget=0;pointerEvents=0;fillColor=none;points=[[0,0.5],[1,0.5]];portConstraint=eastwest;top=0;left=0;right=0;bottom=1;fontColor=#0A1F32;" vertex="1" parent="p7Mw4wTtwR3t4Kbprkma-492">
          <mxGeometry y="30" width="299" height="30" as="geometry" />
        </mxCell>
        <mxCell id="p7Mw4wTtwR3t4Kbprkma-494" value="PK" style="shape=partialRectangle;overflow=hidden;connectable=0;fillColor=none;top=0;left=0;bottom=0;right=0;fontStyle=1;fontColor=#0A1F32;" vertex="1" parent="p7Mw4wTtwR3t4Kbprkma-493">
          <mxGeometry width="30" height="30" as="geometry">
            <mxRectangle width="30" height="30" as="alternateBounds" />
          </mxGeometry>
        </mxCell>
        <mxCell id="p7Mw4wTtwR3t4Kbprkma-495" value="template_idÂ int NOT NULL " style="shape=partialRectangle;overflow=hidden;connectable=0;fillColor=none;top=0;left=0;bottom=0;right=0;align=left;spacingLeft=6;fontStyle=1;strokeColor=#0A1F32;strokeWidth=2;fontColor=#0A1F32;" vertex="1" parent="p7Mw4wTtwR3t4Kbprkma-493">
          <mxGeometry x="30" width="269" height="30" as="geometry">
            <mxRectangle width="269" height="30" as="alternateBounds" />
          </mxGeometry>
        </mxCell>
        <mxCell id="p7Mw4wTtwR3t4Kbprkma-496" value="" style="shape=partialRectangle;collapsible=0;dropTarget=0;pointerEvents=0;fillColor=none;points=[[0,0.5],[1,0.5]];portConstraint=eastwest;top=0;left=0;right=0;bottom=0;strokeWidth=2;strokeColor=#0A1F32;fontColor=#0A1F32;" vertex="1" parent="p7Mw4wTtwR3t4Kbprkma-492">
          <mxGeometry y="60" width="299" height="30" as="geometry" />
        </mxCell>
        <mxCell id="p7Mw4wTtwR3t4Kbprkma-497" value="" style="shape=partialRectangle;overflow=hidden;connectable=0;fillColor=none;top=0;left=0;bottom=0;right=0;fontColor=#0A1F32;" vertex="1" parent="p7Mw4wTtwR3t4Kbprkma-496">
          <mxGeometry width="30" height="30" as="geometry">
            <mxRectangle width="30" height="30" as="alternateBounds" />
          </mxGeometry>
        </mxCell>
        <mxCell id="p7Mw4wTtwR3t4Kbprkma-498" value="template_status char(50) NOT NULL" style="shape=partialRectangle;overflow=hidden;connectable=0;fillColor=none;top=0;left=0;bottom=0;right=0;align=left;spacingLeft=6;fontColor=#0A1F32;" vertex="1" parent="p7Mw4wTtwR3t4Kbprkma-496">
          <mxGeometry x="30" width="269" height="30" as="geometry">
            <mxRectangle width="269" height="30" as="alternateBounds" />
          </mxGeometry>
        </mxCell>
        <mxCell id="p7Mw4wTtwR3t4Kbprkma-499" value="" style="shape=partialRectangle;collapsible=0;dropTarget=0;pointerEvents=0;fillColor=none;points=[[0,0.5],[1,0.5]];portConstraint=eastwest;top=0;left=0;right=0;bottom=0;fontColor=#0A1F32;" vertex="1" parent="p7Mw4wTtwR3t4Kbprkma-492">
          <mxGeometry y="90" width="299" height="30" as="geometry" />
        </mxCell>
        <mxCell id="p7Mw4wTtwR3t4Kbprkma-500" value="" style="shape=partialRectangle;overflow=hidden;connectable=0;fillColor=none;top=0;left=0;bottom=0;right=0;fontColor=#0A1F32;" vertex="1" parent="p7Mw4wTtwR3t4Kbprkma-499">
          <mxGeometry width="30" height="30" as="geometry">
            <mxRectangle width="30" height="30" as="alternateBounds" />
          </mxGeometry>
        </mxCell>
        <mxCell id="p7Mw4wTtwR3t4Kbprkma-501" value="template_link char(500) NOT NULL" style="shape=partialRectangle;overflow=hidden;connectable=0;fillColor=none;top=0;left=0;bottom=0;right=0;align=left;spacingLeft=6;fontColor=#0A1F32;" vertex="1" parent="p7Mw4wTtwR3t4Kbprkma-499">
          <mxGeometry x="30" width="269" height="30" as="geometry">
            <mxRectangle width="269" height="30" as="alternateBounds" />
          </mxGeometry>
        </mxCell>
        <mxCell id="p7Mw4wTtwR3t4Kbprkma-502" value="" style="endArrow=none;html=1;rounded=0;strokeWidth=2;strokeColor=#0A1F32;exitX=0;exitY=0.997;exitDx=0;exitDy=0;exitPerimeter=0;entryX=0.999;entryY=1.023;entryDx=0;entryDy=0;entryPerimeter=0;fontColor=#0A1F32;" edge="1" parent="p7Mw4wTtwR3t4Kbprkma-492" source="p7Mw4wTtwR3t4Kbprkma-493" target="p7Mw4wTtwR3t4Kbprkma-493">
          <mxGeometry width="50" height="50" relative="1" as="geometry">
            <mxPoint x="149" y="60" as="sourcePoint" />
            <mxPoint x="199" y="10" as="targetPoint" />
          </mxGeometry>
        </mxCell>
        <mxCell id="p7Mw4wTtwR3t4Kbprkma-511" value="" style="shape=table;startSize=0;container=1;collapsible=1;childLayout=tableLayout;fixedRows=1;rowLines=0;fontStyle=0;align=center;resizeLast=1;strokeColor=#0A1F32;fillColor=none;collapsible=0;whiteSpace=wrap;html=1;strokeWidth=2;fontColor=#0A1F32;" vertex="1" parent="1">
          <mxGeometry x="-59" y="-40" width="319" height="40.00000000000023" as="geometry" />
        </mxCell>
        <mxCell id="p7Mw4wTtwR3t4Kbprkma-512" value="" style="shape=tableRow;horizontal=0;startSize=0;swimlaneHead=0;swimlaneBody=0;fillColor=none;collapsible=0;dropTarget=0;points=[[0,0.5],[1,0.5]];portConstraint=eastwest;top=0;left=0;right=0;bottom=0;strokeWidth=2;strokeColor=#0A1F32;fontColor=#0A1F32;" vertex="1" parent="p7Mw4wTtwR3t4Kbprkma-511">
          <mxGeometry width="319" height="40" as="geometry" />
        </mxCell>
        <mxCell id="p7Mw4wTtwR3t4Kbprkma-513" value="FK4" style="shape=partialRectangle;connectable=0;fillColor=none;top=0;left=0;bottom=0;right=0;editable=1;overflow=hidden;strokeWidth=2;strokeColor=#0A1F32;fontColor=#0A1F32;" vertex="1" parent="p7Mw4wTtwR3t4Kbprkma-512">
          <mxGeometry width="30" height="40" as="geometry">
            <mxRectangle width="30" height="40" as="alternateBounds" />
          </mxGeometry>
        </mxCell>
        <mxCell id="p7Mw4wTtwR3t4Kbprkma-514" value="community_templates_idÂ int NOT NULL" style="shape=partialRectangle;connectable=0;fillColor=none;top=0;left=0;bottom=0;right=0;align=left;spacingLeft=6;overflow=hidden;strokeWidth=2;strokeColor=#0A1F32;fontColor=#0A1F32;" vertex="1" parent="p7Mw4wTtwR3t4Kbprkma-512">
          <mxGeometry x="30" width="289" height="40" as="geometry">
            <mxRectangle width="289" height="40" as="alternateBounds" />
          </mxGeometry>
        </mxCell>
        <mxCell id="p7Mw4wTtwR3t4Kbprkma-516" value="" style="endArrow=ERzeroToMany;startArrow=ERone;endFill=1;startFill=0;exitX=1;exitY=0.5;exitDx=0;exitDy=0;strokeWidth=2;entryX=0;entryY=0.5;entryDx=0;entryDy=0;strokeColor=#FF4C2B;edgeStyle=orthogonalEdgeStyle;" edge="1" parent="1" source="p7Mw4wTtwR3t4Kbprkma-511" target="p7Mw4wTtwR3t4Kbprkma-482">
          <mxGeometry width="100" height="100" relative="1" as="geometry">
            <mxPoint x="270" y="-50" as="sourcePoint" />
            <mxPoint x="638" y="214" as="targetPoint" />
            <Array as="points">
              <mxPoint x="320" y="-20" />
              <mxPoint x="320" y="402" />
            </Array>
          </mxGeometry>
        </mxCell>
        <mxCell id="p7Mw4wTtwR3t4Kbprkma-517" value="" style="edgeStyle=orthogonalEdgeStyle;fontSize=12;html=1;endArrow=ERzeroToMany;endFill=1;rounded=1;strokeColor=#FF4C2B;strokeWidth=2;exitX=1;exitY=0.5;exitDx=0;exitDy=0;" edge="1" parent="1" source="p7Mw4wTtwR3t4Kbprkma-493" target="p7Mw4wTtwR3t4Kbprkma-482">
          <mxGeometry width="100" height="100" relative="1" as="geometry">
            <mxPoint x="-100" y="-295" as="sourcePoint" />
            <mxPoint x="262" y="411" as="targetPoint" />
            <Array as="points">
              <mxPoint x="670" y="573" />
              <mxPoint x="670" y="402" />
            </Array>
          </mxGeometry>
        </mxCell>
        <mxCell id="p7Mw4wTtwR3t4Kbprkma-518" value="" style="fontSize=12;html=1;endArrow=ERzeroToMany;endFill=1;rounded=1;strokeColor=#FF4C2B;strokeWidth=2;exitX=0;exitY=0.5;exitDx=0;exitDy=0;entryX=1;entryY=0.5;entryDx=0;entryDy=0;" edge="1" parent="1" source="p7Mw4wTtwR3t4Kbprkma-493" target="p7Mw4wTtwR3t4Kbprkma-460">
          <mxGeometry width="100" height="100" relative="1" as="geometry">
            <mxPoint x="247.5" y="815" as="sourcePoint" />
            <mxPoint x="247.5" y="644" as="targetPoint" />
          </mxGeometry>
        </mxCell>
        <mxCell id="p7Mw4wTtwR3t4Kbprkma-520" value="" style="endArrow=ERzeroToMany;startArrow=ERone;endFill=1;startFill=0;exitX=0;exitY=0.5;exitDx=0;exitDy=0;strokeWidth=2;entryX=0;entryY=0.5;entryDx=0;entryDy=0;strokeColor=#99004D;edgeStyle=orthogonalEdgeStyle;" edge="1" parent="1" source="W1w_GPU8LvK_WI4qFMCy-134" target="p7Mw4wTtwR3t4Kbprkma-460">
          <mxGeometry width="100" height="100" relative="1" as="geometry">
            <mxPoint x="270" y="-10" as="sourcePoint" />
            <mxPoint x="350" y="412" as="targetPoint" />
            <Array as="points">
              <mxPoint x="-440" y="93" />
              <mxPoint x="-440" y="680" />
              <mxPoint x="-60" y="680" />
              <mxPoint x="-60" y="573" />
            </Array>
          </mxGeometry>
        </mxCell>
        <mxCell id="p7Mw4wTtwR3t4Kbprkma-522" value="&lt;font color=&quot;#0a1f32&quot; style=&quot;&quot; size=&quot;1&quot;&gt;&lt;b style=&quot;font-size: 18px; background-color: rgb(210, 210, 210);&quot;&gt;ÐÐ¸Ð·ÑÐ°Ð»Ð¸Ð·Ð¸ÑÐ¾Ð²Ð°Ð½Ð½Ð°Ñ Ð·Ð´ÐµÑÑ ER-Ð´Ð¸Ð°Ð³ÑÐ°Ð¼Ð¼Ð° ÑÐ²Ð»ÑÐµÑÑÑÑ ÑÑÐµÐ¼Ð¾Ð¹ ÑÑÑÑÐºÑÑÑÑ Ð´Ð°Ð½Ð½ÑÑ Ð¸ ÑÐ°Ð±Ð»Ð¸Ñ Ð² Ð±Ð°Ð·Ðµ Ð´Ð°Ð½Ð½ÑÑ PostgreSQL. Ð­ÑÐ¾Ñ Ð¼Ð°ÐºÐµÑ Ð¿Ð¾ÐºÐ°Ð·ÑÐ²Ð°ÐµÑ Ð¾ÑÐ½Ð¾Ð²Ñ Ð°ÑÑÐµÑÐµÐºÑÑÑÑ ÐÐ, Ð½Ð¾ Ð½Ðµ Ð² ÐºÐ¾ÐµÐ¼ ÑÐ»ÑÑÐ°Ðµ Ð½Ðµ Ð¾Ð³ÑÐ°Ð½Ð¸ÑÐ¸Ð²Ð°ÐµÑ ÐµÑ Ð´Ð°Ð»ÑÐ½ÐµÐ¹ÑÐµÐµ ÑÐ°Ð·Ð²Ð¸ÑÐ¸Ðµ Ð¸ ÑÐ°ÑÑÐ¸ÑÐµÐ½Ð¸Ðµ.&lt;/b&gt;&lt;/font&gt;" style="rounded=1;whiteSpace=wrap;html=1;strokeWidth=2;fillWeight=4;hachureGap=8;hachureAngle=45;fillColor=#1ba1e2;sketch=1;strokeColor=#FF4C2B;align=center;verticalAlign=middle;fontFamily=Helvetica;fontSize=12;fontColor=default;" vertex="1" parent="1">
          <mxGeometry x="-425" y="710" width="625" height="210" as="geometry" />
        </mxCell>
        <mxCell id="p7Mw4wTtwR3t4Kbprkma-524" value="&lt;font style=&quot;font-size: 16px;&quot;&gt;Ð¡Ð¾Ð´ÐµÑÐ¶Ð¸Ñ ÑÑÑÐ»ÐºÑ Ð½Ð° ÑÐ°Ð±Ð»Ð¾Ð½, Ð·Ð°Ð¿Ð¸ÑÐ°Ð½Ð½ÑÐ¹ Ð² MongoDB&lt;/font&gt;" style="label;whiteSpace=wrap;html=1;image=img/clipart/Gear_128x128.png;rounded=0;strokeColor=#FF4C2B;strokeWidth=2;align=center;verticalAlign=middle;fontFamily=Helvetica;fontSize=12;fontColor=default;fillColor=#344756;" vertex="1" parent="1">
          <mxGeometry x="333" y="729" width="308" height="120" as="geometry" />
        </mxCell>
        <mxCell id="p7Mw4wTtwR3t4Kbprkma-525" value="" style="endArrow=none;dashed=1;html=1;dashPattern=1 3;strokeWidth=2;rounded=0;fontFamily=Helvetica;fontSize=12;fontColor=default;entryX=0.493;entryY=1.118;entryDx=0;entryDy=0;entryPerimeter=0;exitX=0.5;exitY=0;exitDx=0;exitDy=0;strokeColor=#0A1F32;" edge="1" parent="1" source="p7Mw4wTtwR3t4Kbprkma-524" target="p7Mw4wTtwR3t4Kbprkma-499">
          <mxGeometry width="50" height="50" relative="1" as="geometry">
            <mxPoint x="400" y="630" as="sourcePoint" />
            <mxPoint x="450" y="580" as="targetPoint" />
          </mxGeometry>
        </mxCell>
      </root>
    </mxGraphModel>
  </diagram>
</mxfile>
